<svg width="96" height="96" viewBox="0 0 96 96" fill="none" xmlns="http://www.w3.org/2000/svg">
<path d="M44 68H52V52H68V44H52V28H44V44H28V52H44V68ZM48 88C42.4667 88 37.2667 86.9667 32.4 84.9C27.5333 82.7667 23.3 79.9 19.7 76.3C16.1 72.7 13.2333 68.4667 11.1 63.6C9.03333 58.7333 8 53.5333 8 48C8 42.4667 9.03333 37.2667 11.1 32.4C13.2333 27.5333 16.1 23.3 19.7 19.7C23.3 16.1 27.5333 13.2667 32.4 11.2C37.2667 9.06667 42.4667 8 48 8C53.5333 8 58.7333 9.06667 63.6 11.2C68.4667 13.2667 72.7 16.1 76.3 19.7C79.9 23.3 82.7333 27.5333 84.8 32.4C86.9333 37.2667 88 42.4667 88 48C88 53.5333 86.9333 58.7333 84.8 63.6C82.7333 68.4667 79.9 72.7 76.3 76.3C72.7 79.9 68.4667 82.7667 63.6 84.9C58.7333 86.9667 53.5333 88 48 88ZM48 80C56.9333 80 64.5 76.9 70.7 70.7C76.9 64.5 80 56.9333 80 48C80 39.0667 76.9 31.5 70.7 25.3C64.5 19.1 56.9333 16 48 16C39.0667 16 31.5 19.1 25.3 25.3C19.1 31.5 16 39.0667 16 48C16 56.9333 19.1 64.5 25.3 70.7C31.5 76.9 39.0667 80 48 80Z" fill="#1D1B20" fill-opacity="0.4"/>
</svg>
