<svg width="20" height="20" viewBox="0 0 20 20" fill="none" xmlns="http://www.w3.org/2000/svg">
<path d="M4.42079 6.92167C4.25765 7.08509 4.16602 7.30658 4.16602 7.5375C4.16602 7.76842 4.25765 7.98991 4.42079 8.15333L9.34079 13.0783C9.53079 13.2683 9.78746 13.3533 10.0358 13.33C10.2608 13.33 10.485 13.2458 10.6558 13.075L15.5783 8.1525C15.6591 8.07168 15.7232 7.97574 15.767 7.87014C15.8107 7.76455 15.8332 7.65138 15.8332 7.53708C15.8332 7.42279 15.8107 7.30962 15.767 7.20402C15.7232 7.09843 15.6591 7.00248 15.5783 6.92167C15.4975 6.84085 15.4015 6.77674 15.2959 6.733C15.1903 6.68926 15.0772 6.66675 14.9629 6.66675C14.8486 6.66675 14.7354 6.68926 14.6298 6.733C14.5242 6.77674 14.4283 6.84085 14.3475 6.92167L9.99746 11.2717L5.65079 6.92167C5.57007 6.84083 5.4742 6.77671 5.36867 6.73296C5.26315 6.68921 5.15003 6.66669 5.03579 6.66669C4.92156 6.66669 4.80844 6.68921 4.70291 6.73296C4.59739 6.77671 4.50152 6.84083 4.42079 6.92167Z" fill="#F5F5F5"/>
</svg>
