<svg width="25" height="25" viewBox="0 0 25 25" fill="none" xmlns="http://www.w3.org/2000/svg">
<path d="M23.2859 13.0718C23.2859 12.2096 23.2147 11.5804 23.0606 10.928H13.041V14.8194H18.9223C18.8038 15.7865 18.1635 17.2429 16.7405 18.2215L16.7206 18.3518L19.8886 20.7633L20.1081 20.7848C22.1238 18.9555 23.2859 16.2641 23.2859 13.0718Z" fill="#4285F4"/>
<path d="M13.0412 23.3248C15.9226 23.3248 18.3415 22.3926 20.1083 20.7848L16.7408 18.2215C15.8396 18.839 14.6301 19.2701 13.0412 19.2701C10.2192 19.2701 7.824 17.4409 6.97018 14.9126L6.84503 14.923L3.55089 17.4281L3.50781 17.5457C5.2627 20.9712 8.86738 23.3248 13.0412 23.3248Z" fill="#34A853"/>
<path d="M6.96981 14.9127C6.74452 14.2602 6.61414 13.5611 6.61414 12.8388C6.61414 12.1164 6.74452 11.4173 6.95795 10.7649L6.95199 10.6259L3.61656 8.08069L3.50743 8.13169C2.78416 9.55314 2.36914 11.1494 2.36914 12.8388C2.36914 14.5282 2.78416 16.1243 3.50743 17.5458L6.96981 14.9127Z" fill="#FBBC05"/>
<path d="M13.0413 6.40745C15.0452 6.40745 16.3969 7.25798 17.1677 7.96874L20.1795 5.07926C18.3298 3.38986 15.9226 2.35291 13.0413 2.35291C8.86741 2.35291 5.26271 4.7064 3.50781 8.13179L6.95834 10.765C7.82402 8.23669 10.2192 6.40745 13.0413 6.40745Z" fill="#EB4335"/>
</svg>
