<svg width="26" height="26" viewBox="0 0 26 26" fill="none" xmlns="http://www.w3.org/2000/svg">
<path d="M24.3753 13.2527C24.3753 12.3174 24.2978 11.6349 24.1302 10.9271H13.2324V15.1485H19.6292C19.5003 16.1975 18.8038 17.7774 17.2562 18.839L17.2345 18.9803L20.6802 21.5963L20.9189 21.6196C23.1113 19.6353 24.3753 16.7157 24.3753 13.2527Z" fill="#4285F4"/>
<path d="M13.2323 24.375C16.3662 24.375 18.9971 23.3638 20.9188 21.6197L17.2561 18.839C16.2759 19.5089 14.9604 19.9766 13.2323 19.9766C10.1629 19.9766 7.55778 17.9923 6.62912 15.2496L6.493 15.261L2.91014 17.9784L2.86328 18.106C4.77198 21.8218 8.69261 24.375 13.2323 24.375Z" fill="#34A853"/>
<path d="M6.63087 15.2497C6.38583 14.542 6.24402 13.7836 6.24402 13C6.24402 12.2163 6.38583 11.458 6.61797 10.7503L6.61148 10.5995L2.98371 7.8385L2.86502 7.89383C2.07835 9.43579 1.62695 11.1674 1.62695 13C1.62695 14.8326 2.07835 16.5641 2.86502 18.1061L6.63087 15.2497Z" fill="#FBBC05"/>
<path d="M13.2324 6.0233C15.4119 6.0233 16.8821 6.94594 17.7204 7.71696L20.9962 4.5825C18.9844 2.74987 16.3663 1.625 13.2324 1.625C8.69265 1.625 4.77199 4.17804 2.86328 7.89384L6.61625 10.7503C7.5578 8.00763 10.1629 6.0233 13.2324 6.0233Z" fill="#EB4335"/>
</svg>
