<svg width="59" height="52" viewBox="0 0 59 52" fill="none" xmlns="http://www.w3.org/2000/svg">
<path d="M16.5985 38.3386C16.3077 38.3386 16.0219 38.7868 15.7208 39.0143C13.8326 40.4793 11.7913 41.3557 9.61222 41.7035C7.8465 41.9912 6.09609 41.9645 4.3763 41.2888C2.75858 40.6533 1.37051 39.5494 0.319243 37.7833C-0.0839118 37.101 -0.104327 36.9672 0.252899 36.2514C0.737706 35.2747 1.39603 34.5455 2.18703 34.037C3.71289 33.0469 5.34592 32.786 7.02488 32.8596C7.0504 32.8596 7.07591 32.8931 7.10653 32.9131C7.11674 32.9533 7.12694 32.9934 7.13715 33.0336C6.95854 33.1205 6.77993 33.2276 6.59621 33.2878C5.26937 33.7026 4.11093 34.512 3.1158 35.7229C3.03925 35.8165 2.97801 35.9302 2.90657 36.0306C2.38604 36.7798 2.36053 36.7865 2.97802 37.5559C4.09563 38.9473 5.47349 39.7033 6.97384 40.1047C8.12207 40.4124 9.28051 40.4659 10.444 40.3388C12.4241 40.1181 14.3021 39.4156 16.0525 38.1713C16.1137 38.1245 16.1699 38.0643 16.2413 37.9974C15.7463 37.5893 15.2564 37.2147 14.792 36.7932C12.9497 35.1141 11.4341 33.0403 10.3777 30.4379C9.09169 27.267 9.08149 24.0023 10.097 20.6976C10.9595 17.9012 12.4956 15.9211 14.4348 14.4092C14.5317 14.3356 14.6236 14.2553 14.7103 14.1817C14.2766 13.6532 13.8326 13.1849 13.455 12.6363C11.9393 10.4287 11.7607 6.90318 12.9752 4.40119C13.802 2.69529 14.94 1.45099 16.2464 0.447518C16.3791 0.347171 16.6241 0.313737 16.7465 0.400704C18.2673 1.51121 19.5839 2.91606 20.3749 5.00997C21.365 7.63906 20.9771 10.8569 19.4257 12.9441C19.1195 13.3589 18.7572 13.7067 18.4 14.1081C18.7113 14.3222 19.0175 14.5229 19.3135 14.7503C21.4517 16.4027 23.0286 18.6572 23.692 21.8616C24.3606 25.0928 23.8043 27.9627 22.1356 30.4848C21.4619 31.4949 20.6556 32.291 19.8085 33.0269C19.6401 33.174 19.4921 33.2008 19.3084 33.0871C17.3436 31.8628 16.0882 29.9094 15.731 27.0529C15.4503 24.8252 15.828 22.7045 16.4097 20.6307C16.4454 20.5036 16.5271 20.3898 16.5883 20.2761C16.6138 20.2828 16.6445 20.2895 16.67 20.2962C16.6802 20.3898 16.7057 20.4835 16.7006 20.5772C16.6598 22.4436 16.7618 24.29 17.1905 26.0762C17.5171 27.4342 18.0223 28.645 18.9103 29.5281C19.0634 29.682 19.1655 29.6954 19.3135 29.5214C20.7169 27.9092 21.5385 25.9892 21.3496 23.4337C21.2578 22.1961 20.9873 21.0722 20.4617 20.042C19.538 18.2223 18.2826 16.8978 16.8537 15.8207C16.7516 15.7471 16.5577 15.7538 16.4557 15.8341C15.037 16.9044 13.7969 18.2357 12.9089 20.0687C12.322 21.2796 11.9648 22.6041 11.8423 24.0291C11.5821 27.0529 12.2302 29.8091 13.3223 32.4181C14.1031 34.2912 15.088 35.9637 16.3179 37.3752C16.3944 37.4622 16.4761 37.5425 16.5526 37.6228M19.5686 7.29789C19.5584 7.0972 19.5482 6.78278 19.5329 6.46167C19.5278 6.36801 19.5176 6.26765 19.5023 6.17399C19.1502 3.9329 18.1754 2.23371 16.8231 0.855606C16.5934 0.621463 16.3944 0.641531 16.2056 0.895743C15.7157 1.55803 15.19 2.19356 14.7563 2.91606C13.853 4.42126 13.3631 6.12048 13.5672 8.08728C13.7611 9.9805 14.5777 11.3051 15.7565 12.3019C16.7567 13.1448 16.3638 13.1314 17.3538 12.2952C18.6909 11.1579 19.5329 9.59918 19.5686 7.29789Z" fill="white"/>
<path d="M42.3431 37.6695C42.4146 37.5959 42.4963 37.5156 42.5779 37.422C43.8078 36.0104 44.7927 34.338 45.5735 32.4648C46.6656 29.8491 47.3137 27.0996 47.0534 24.0758C46.931 22.6509 46.5686 21.3263 45.9869 20.1155C45.0989 18.2825 43.8639 16.9445 42.4401 15.8808C42.338 15.8005 42.1441 15.7938 42.0421 15.8674C40.6132 16.9445 39.3578 18.2691 38.4341 20.0887C37.9085 21.1189 37.5614 22.2428 37.4696 23.4804C37.2808 26.0359 38.1789 27.9559 39.5823 29.5681C39.7303 29.7421 39.8324 29.7287 39.9855 29.5748C40.8734 28.6918 41.3786 27.4809 41.7052 26.1229C42.139 24.33 42.2411 22.4903 42.1952 20.6239C42.1952 20.5302 42.2156 20.4366 42.2258 20.3429C42.2513 20.3362 42.2819 20.3295 42.3074 20.3228C42.3687 20.4433 42.4503 20.5503 42.486 20.6774C43.0729 22.7512 43.4455 24.8719 43.1648 27.0996C42.8076 29.9562 41.5573 31.9096 39.5874 33.1338C39.4037 33.2475 39.2608 33.2208 39.0873 33.0736C38.2402 32.3377 37.4339 31.5416 36.7602 30.5315C35.0915 28.0161 34.5352 25.1462 35.2037 21.9083C35.8672 18.7039 37.4441 16.4428 39.5823 14.7971C39.8783 14.5696 40.1845 14.3756 40.4958 14.1548C40.1335 13.7468 39.7762 13.3989 39.47 12.9908C37.9187 10.9036 37.5359 7.6858 38.5208 5.05671C39.3118 2.95611 40.6285 1.55793 42.1492 0.447424C42.2717 0.353767 42.5167 0.393911 42.6493 0.494258C43.9558 1.49773 45.0938 2.74872 45.9205 4.44793C47.1351 6.94992 46.9565 10.4754 45.4408 12.6831C45.0632 13.2316 44.6192 13.6999 44.1854 14.2284C44.2722 14.2953 44.364 14.3823 44.461 14.4559C46.4053 15.9611 47.9363 17.9413 48.7987 20.7443C49.8143 24.0558 49.8041 27.3137 48.5181 30.4847C47.4617 33.087 45.9409 35.1675 44.1038 36.84C43.6394 37.2614 43.1495 37.636 42.6545 38.0441C42.7259 38.111 42.782 38.1712 42.8433 38.2181C44.5937 39.4624 46.4717 40.1648 48.4517 40.3856C49.6153 40.5127 50.7737 40.4591 51.9219 40.1514C53.4172 39.75 54.795 39.0008 55.9177 37.6026C56.5352 36.8333 56.5097 36.8199 55.9892 36.0773C55.9178 35.977 55.8565 35.8633 55.78 35.7696C54.7848 34.5587 53.6264 33.7426 52.2996 33.3278C52.1158 33.2676 51.9372 33.1606 51.7586 33.0736C51.7688 33.0335 51.779 32.9933 51.7892 32.9532C51.8147 32.9331 51.8403 32.8997 51.8658 32.8997C53.5447 32.8261 55.1778 33.087 56.7036 34.0771C57.4946 34.5855 58.153 35.3214 58.6378 36.2914C58.995 37.0072 58.9746 37.141 58.5714 37.8234C57.5202 39.5895 56.1321 40.6933 54.5144 41.3288C52.7946 42.0045 51.0493 42.0312 49.2785 41.7436C47.0994 41.389 45.0581 40.5194 43.1699 39.0543C42.8739 38.8201 42.583 38.3786 42.2921 38.3786M41.5573 12.3218C42.5422 13.1581 42.1543 13.1714 43.1546 12.3285C44.3334 11.3317 45.1499 10.0072 45.3439 8.11395C45.5429 6.14715 45.0581 4.45462 44.1548 2.94273C43.721 2.22023 43.1954 1.58471 42.7055 0.922415C42.5167 0.668202 42.3176 0.648135 42.088 0.882278C40.7356 2.26038 39.7609 3.95958 39.4088 6.20066C39.3935 6.29432 39.3833 6.39466 39.3782 6.48832C39.3629 6.80274 39.3527 7.12385 39.3425 7.32454C39.3731 9.62583 40.2151 11.1912 41.5573 12.3218Z" fill="white"/>
<path d="M15.7323 40.2688C15.5129 40.3758 15.2985 40.5096 15.074 40.5765C13.4563 41.0782 12.0427 42.075 10.823 43.5535C10.7311 43.6672 10.6546 43.8077 10.5678 43.9348C9.93504 44.8446 9.89932 44.858 10.6546 45.8012C12.0223 47.5005 13.7063 48.4236 15.5333 48.912C16.9316 49.2866 18.3503 49.3535 19.769 49.193C22.1879 48.9254 24.4792 48.0691 26.6175 46.5505C26.6941 46.497 26.7604 46.4234 26.8522 46.3364C26.245 45.8347 25.6479 45.3798 25.0814 44.8647C22.836 42.8176 20.9784 40.2755 19.6873 37.0978C18.1155 33.2244 18.1002 29.2373 19.3454 25.1966C20.3967 21.7781 22.2747 19.3565 24.6426 17.5168C24.7599 17.4231 24.8773 17.3228 24.9794 17.2425C24.4486 16.5936 23.9077 16.0249 23.4484 15.3559C21.5959 12.66 21.3765 8.35841 22.8615 5.30117C23.872 3.22064 25.26 1.69536 26.8574 0.471129C27.0207 0.344023 27.3166 0.303893 27.4697 0.41762C29.3273 1.77565 30.9348 3.48823 31.8993 6.05042C33.1088 9.26153 32.6393 13.1951 30.7409 15.744C30.3633 16.2457 29.9244 16.6738 29.4855 17.1689C29.8632 17.4365 30.2408 17.6773 30.598 17.9516C33.2109 19.9652 35.1399 22.7281 35.9462 26.6416C36.7627 30.5886 36.084 34.0941 34.0427 37.1714C33.2211 38.409 32.2362 39.379 31.2002 40.2822C30.991 40.4628 30.8124 40.4962 30.5929 40.3557C28.1893 38.8639 26.6634 36.4757 26.2246 32.9903C25.8826 30.2675 26.3419 27.6853 27.0564 25.1498C27.1023 24.9893 27.1993 24.8622 27.2758 24.715C27.3064 24.7217 27.3422 24.735 27.3728 24.7417C27.3881 24.8555 27.4136 24.9692 27.4136 25.0896C27.3626 27.3708 27.4902 29.6186 28.0158 31.8062C28.4138 33.4652 29.0313 34.9437 30.1183 36.0208C30.3071 36.2081 30.4296 36.2214 30.6133 36.0141C32.328 34.0406 33.4303 31.6991 33.1956 28.575C33.0833 27.0631 32.6546 25.6917 32.0167 24.434C30.8889 22.213 29.3528 20.5874 27.6126 19.2762C27.4902 19.1825 27.2554 19.1959 27.1278 19.2896C25.3927 20.5941 23.8822 22.2264 22.8003 24.4675C22.0858 25.9459 21.647 27.5648 21.4939 29.3042C21.1724 32.997 21.9685 36.3619 23.3004 39.553C24.2547 41.8409 25.454 43.8813 26.9594 45.6072C27.0564 45.7143 27.1533 45.8146 27.2452 45.9083C27.8372 45.1992 28.3883 44.4834 28.9854 43.8411C31.2359 41.4395 33.7824 39.8942 36.6862 39.4526C40.4013 38.884 43.6725 40.2621 46.515 43.4197C46.8977 43.8478 47.2397 44.3362 47.602 44.7911C47.7806 45.0118 47.7959 45.1992 47.6377 45.4868C46.4384 47.6811 44.8207 49.1194 42.9121 50.0493C41.3046 50.832 39.6358 51.1464 37.9365 51.0795C34.5326 50.9524 31.3074 49.8954 28.3628 47.5807C28.0005 47.2931 27.6484 46.7445 27.2911 46.7445C26.9339 46.7445 26.5818 47.2864 26.2195 47.574C23.9128 49.3669 21.4224 50.4306 18.7585 50.8587C16.5999 51.2066 14.4667 51.1798 12.3642 50.3503C10.3892 49.5743 8.68986 48.2296 7.40385 46.0688C6.90883 45.2393 6.88842 45.072 7.32219 44.2024C7.91417 43.0116 8.72048 42.1219 9.68499 41.4997C11.5477 40.2955 13.543 39.9744 15.5945 40.0614C15.6251 40.0614 15.6609 40.1015 15.6915 40.1216C15.7068 40.1684 15.7221 40.2153 15.7323 40.2688ZM27.5463 46.2227C27.6637 46.3164 27.7249 46.3699 27.7912 46.4234C29.557 47.7547 31.4605 48.5507 33.4609 48.9722C35.8595 49.4739 38.2376 49.3736 40.5748 48.437C41.8711 47.9152 43.0703 47.1526 44.045 45.8748C44.4227 45.3798 44.4227 45.333 44.0501 44.8647C42.1824 42.5366 39.9267 41.3726 37.3802 41.2187C34.9409 41.0715 32.6495 41.8609 30.5062 43.3728C29.4396 44.1355 28.4496 45.0386 27.5463 46.2227ZM30.9144 8.82671C30.9042 8.58587 30.8889 8.19785 30.8736 7.80984C30.8685 7.68943 30.8532 7.5757 30.8328 7.45529C30.399 4.71916 29.2099 2.64532 27.5565 0.959492C27.2758 0.671831 27.0309 0.698581 26.8012 1.013C26.2041 1.82247 25.5611 2.59849 25.0304 3.48154C23.9281 5.32124 23.331 7.39508 23.576 9.79672C23.8107 12.1047 24.811 13.7236 26.2501 14.9412C27.4697 15.9714 26.9951 15.9513 28.1995 14.9345C29.8427 13.543 30.8736 11.6364 30.9144 8.82671Z" fill="white"/>
</svg>
