<svg width="56" height="51" viewBox="0 0 56 51" fill="none" xmlns="http://www.w3.org/2000/svg">
<rect x="0.828125" y="0.0262451" width="55.1648" height="50.7014" rx="9" fill="#F7F7F7"/>
<ellipse cx="27.9502" cy="23.3853" rx="11.6651" ry="11.6959" fill="url(#paint0_linear_475_2009)"/>
<path d="M32.2946 28.0315L32.8128 24.7304H29.5713V22.5891C29.5713 21.6858 30.0233 20.8047 31.4751 20.8047H32.9498V17.9943C32.9498 17.9943 31.6121 17.7712 30.3337 17.7712C27.6629 17.7712 25.9188 19.3526 25.9188 22.2144V24.7304H22.9512V28.0315H25.9188V36.0122C26.5146 36.1037 27.1241 36.1505 27.745 36.1505C28.366 36.1505 28.9755 36.1037 29.5713 36.0122V28.0315H32.2946Z" fill="#F7F7F7"/>
<defs>
<linearGradient id="paint0_linear_475_2009" x1="27.9502" y1="11.6895" x2="27.9502" y2="35.0119" gradientUnits="userSpaceOnUse">
<stop stop-color="#18ACFE"/>
<stop offset="1" stop-color="#0163E0"/>
</linearGradient>
</defs>
</svg>
