<svg width="59" height="44" viewBox="0 0 59 44" fill="none" xmlns="http://www.w3.org/2000/svg">
<path d="M16.5985 32.5241C16.3077 32.5241 16.0219 32.8971 15.7208 33.0863C13.8326 34.3053 11.7913 35.0345 9.61222 35.3239C7.8465 35.5632 6.09609 35.541 4.3763 34.9788C2.75858 34.45 1.37051 33.5316 0.319243 32.0621C-0.0839118 31.4944 -0.104327 31.3831 0.252899 30.7875C0.737706 29.9748 1.39603 29.3681 2.18703 28.9451C3.71289 28.1213 5.34592 27.9042 7.02488 27.9655C7.0504 27.9655 7.07591 27.9933 7.10653 28.01C7.11674 28.0434 7.12694 28.0768 7.13715 28.1102C6.95854 28.1826 6.77993 28.2716 6.59621 28.3217C5.26937 28.6668 4.11093 29.3403 3.1158 30.3478C3.03925 30.4257 2.97801 30.5203 2.90657 30.6038C2.38604 31.2272 2.36053 31.2328 2.97802 31.8729C4.09563 33.0306 5.47349 33.6596 6.97384 33.9936C8.12207 34.2496 9.28051 34.2942 10.444 34.1884C12.4241 34.0047 14.3021 33.4203 16.0525 32.385C16.1137 32.346 16.1699 32.2959 16.2413 32.2403C15.7463 31.9007 15.2564 31.589 14.792 31.2384C12.9497 29.8413 11.4341 28.1158 10.3777 25.9505C9.09169 23.3122 9.08149 20.5959 10.097 17.8462C10.9595 15.5196 12.4956 13.872 14.4348 12.6141C14.5317 12.5528 14.6236 12.486 14.7103 12.4248C14.2766 11.9851 13.8326 11.5955 13.455 11.139C11.9393 9.30221 11.7607 6.36886 12.9752 4.28713C13.802 2.86776 14.94 1.83246 16.2464 0.997541C16.3791 0.914049 16.6241 0.886231 16.7465 0.958591C18.2673 1.88257 19.5839 3.05145 20.3749 4.79365C21.365 6.98114 20.9771 9.65846 19.4257 11.3951C19.1195 11.7402 18.7572 12.0296 18.4 12.3636C18.7113 12.5417 19.0175 12.7087 19.3135 12.8979C21.4517 14.2728 23.0286 16.1486 23.692 18.8147C24.3606 21.5032 23.8043 23.8911 22.1356 25.9895C21.4619 26.83 20.6556 27.4923 19.8085 28.1046C19.6401 28.2271 19.4921 28.2493 19.3084 28.1547C17.3436 27.1361 16.0882 25.5108 15.731 23.1341C15.4503 21.2805 15.828 19.5161 16.4097 17.7906C16.4454 17.6848 16.5271 17.5902 16.5883 17.4956C16.6138 17.5011 16.6445 17.5067 16.67 17.5123C16.6802 17.5902 16.7057 17.6681 16.7006 17.7461C16.6598 19.299 16.7618 20.8352 17.1905 22.3214C17.5171 23.4513 18.0223 24.4588 18.9103 25.1935C19.0634 25.3215 19.1655 25.3327 19.3135 25.188C20.7169 23.8465 21.5385 22.249 21.3496 20.1228C21.2578 19.0931 20.9873 18.1579 20.4617 17.3008C19.538 15.7868 18.2826 14.6847 16.8537 13.7885C16.7516 13.7273 16.5577 13.7329 16.4557 13.7996C15.037 14.6902 13.7969 15.7979 12.9089 17.323C12.322 18.3305 11.9648 19.4326 11.8423 20.6182C11.5821 23.1341 12.2302 25.4273 13.3223 27.5981C14.1031 29.1566 15.088 30.5482 16.3179 31.7226C16.3944 31.795 16.4761 31.8618 16.5526 31.9286M19.5686 6.69727C19.5584 6.53029 19.5482 6.26868 19.5329 6.00151C19.5278 5.92358 19.5176 5.84008 19.5023 5.76215C19.1502 3.8975 18.1754 2.48371 16.8231 1.33708C16.5934 1.14227 16.3944 1.15897 16.2056 1.37048C15.7157 1.92153 15.19 2.4503 14.7563 3.05145C13.853 4.30383 13.3631 5.71763 13.5672 7.35407C13.7611 8.92929 14.5777 10.0314 15.7565 10.8607C16.7567 11.5621 16.3638 11.5509 17.3538 10.8552C18.6909 9.90893 19.5329 8.61202 19.5686 6.69727Z" fill="white"/>
<path d="M42.3431 31.9671C42.4146 31.9059 42.4963 31.8391 42.5779 31.7612C43.8078 30.5867 44.7927 29.1952 45.5735 27.6367C46.6656 25.4603 47.3137 23.1726 47.0534 20.6567C46.931 19.4711 46.5686 18.369 45.9869 17.3616C45.0989 15.8365 43.8639 14.7232 42.4401 13.8382C42.338 13.7714 42.1441 13.7659 42.0421 13.8271C40.6132 14.7232 39.3578 15.8253 38.4341 17.3393C37.9085 18.1965 37.5614 19.1316 37.4696 20.1613C37.2808 22.2876 38.1789 23.8851 39.5823 25.2265C39.7303 25.3712 39.8324 25.3601 39.9855 25.2321C40.8734 24.4974 41.3786 23.4899 41.7052 22.36C42.139 20.8682 42.2411 19.3375 42.1952 17.7846C42.1952 17.7067 42.2156 17.6288 42.2258 17.5508C42.2513 17.5453 42.2819 17.5397 42.3074 17.5341C42.3687 17.6343 42.4503 17.7234 42.486 17.8291C43.0729 19.5546 43.4455 21.3191 43.1648 23.1726C42.8076 25.5494 41.5573 27.1747 39.5874 28.1933C39.4037 28.2879 39.2608 28.2656 39.0873 28.1432C38.2402 27.5309 37.4339 26.8685 36.7602 26.028C35.0915 23.9352 34.5352 21.5473 35.2037 18.8533C35.8672 16.1871 37.4441 14.3058 39.5823 12.9365C39.8783 12.7472 40.1845 12.5858 40.4958 12.4022C40.1335 12.0626 39.7762 11.7732 39.47 11.4336C37.9187 9.697 37.5359 7.0197 38.5208 4.83221C39.3118 3.08444 40.6285 1.92111 42.1492 0.997134C42.2717 0.919208 42.5167 0.952609 42.6493 1.0361C43.9558 1.87102 45.0938 2.91189 45.9205 4.32569C47.1351 6.40742 46.9565 9.34077 45.4408 11.1776C45.0632 11.634 44.6192 12.0236 44.1854 12.4634C44.2722 12.519 44.364 12.5914 44.461 12.6526C46.4053 13.905 47.9363 15.5526 48.7987 17.8848C49.8143 20.64 49.8041 23.3507 48.5181 25.9891C47.4617 28.1543 45.9409 29.8854 44.1038 31.2769C43.6394 31.6276 43.1495 31.9393 42.6545 32.2788C42.7259 32.3345 42.782 32.3846 42.8433 32.4235C44.5937 33.4588 46.4717 34.0433 48.4517 34.227C49.6153 34.3327 50.7737 34.2882 51.9219 34.0321C53.4172 33.6982 54.795 33.0748 55.9177 31.9114C56.5352 31.2713 56.5097 31.2602 55.9892 30.6424C55.9178 30.5589 55.8565 30.4643 55.78 30.3863C54.7848 29.3789 53.6264 28.6998 52.2996 28.3547C52.1158 28.3046 51.9372 28.2155 51.7586 28.1432C51.7688 28.1098 51.779 28.0764 51.7892 28.043C51.8147 28.0263 51.8403 27.9985 51.8658 27.9985C53.5447 27.9372 55.1778 28.1543 56.7036 28.9781C57.4946 29.4011 58.153 30.0134 58.6378 30.8205C58.995 31.4161 58.9746 31.5274 58.5714 32.0951C57.5202 33.5646 56.1321 34.483 54.5144 35.0118C52.7946 35.574 51.0493 35.5962 49.2785 35.3569C47.0994 35.0619 45.0581 34.3383 43.1699 33.1193C42.8739 32.9245 42.583 32.5571 42.2921 32.5571M41.5573 10.877C42.5422 11.5728 42.1543 11.5839 43.1546 10.8826C44.3334 10.0532 45.1499 8.95115 45.3439 7.37593C45.5429 5.73949 45.0581 4.33125 44.1548 3.07331C43.721 2.47217 43.1954 1.94339 42.7055 1.39234C42.5167 1.18083 42.3176 1.16413 42.088 1.35895C40.7356 2.50557 39.7609 3.91936 39.4088 5.78401C39.3935 5.86194 39.3833 5.94543 39.3782 6.02335C39.3629 6.28496 39.3527 6.55213 39.3425 6.71912C39.3731 8.63387 40.2151 9.93634 41.5573 10.877Z" fill="white"/>
<path d="M15.7323 34.1301C15.5129 34.2192 15.2985 34.3305 15.074 34.3862C13.4563 34.8036 12.0427 35.633 10.823 36.8631C10.7311 36.9577 10.6546 37.0746 10.5678 37.1804C9.93504 37.9374 9.89932 37.9485 10.6546 38.7333C12.0223 40.1471 13.7063 40.9152 15.5333 41.3216C16.9316 41.6333 18.3503 41.6889 19.769 41.5554C22.1879 41.3327 24.4792 40.6202 26.6175 39.3567C26.6941 39.3122 26.7604 39.251 26.8522 39.1786C26.245 38.7611 25.6479 38.3827 25.0814 37.9541C22.836 36.2508 20.9784 34.1357 19.6873 31.4918C18.1155 28.269 18.1002 24.9516 19.3454 21.5896C20.3967 18.7453 22.2747 16.7304 24.6426 15.1997C24.7599 15.1218 24.8773 15.0383 24.9794 14.9715C24.4486 14.4316 23.9077 13.9584 23.4484 13.4018C21.5959 11.1587 21.3765 7.57966 22.8615 5.03594C23.872 3.30487 25.26 2.03579 26.8574 1.01719C27.0207 0.91143 27.3166 0.878041 27.4697 0.972665C29.3273 2.10259 30.9348 3.52751 31.8993 5.65934C33.1088 8.33108 32.6393 11.604 30.7409 13.7247C30.3633 14.1421 29.9244 14.4984 29.4855 14.9103C29.8632 15.1329 30.2408 15.3333 30.598 15.5615C33.2109 17.2369 35.1399 19.5357 35.9462 22.7919C36.7627 26.0759 36.084 28.9926 34.0427 31.553C33.2211 32.5827 32.2362 33.3898 31.2002 34.1413C30.991 34.2915 30.8124 34.3194 30.5929 34.2025C28.1893 32.9612 26.6634 30.9741 26.2246 28.0742C25.8826 25.8088 26.3419 23.6602 27.0564 21.5507C27.1023 21.4171 27.1993 21.3113 27.2758 21.1889C27.3064 21.1944 27.3422 21.2056 27.3728 21.2111C27.3881 21.3057 27.4136 21.4004 27.4136 21.5006C27.3626 23.3986 27.4902 25.2688 28.0158 27.089C28.4138 28.4694 29.0313 29.6995 30.1183 30.5956C30.3071 30.7515 30.4296 30.7626 30.6133 30.5901C32.328 28.948 33.4303 26.9999 33.1956 24.4005C33.0833 23.1426 32.6546 22.0015 32.0167 20.9551C30.8889 19.1071 29.3528 17.7546 27.6126 16.6636C27.4902 16.5857 27.2554 16.5968 27.1278 16.6747C25.3927 17.7601 23.8822 19.1183 22.8003 20.9829C22.0858 22.213 21.647 23.56 21.4939 25.0072C21.1724 28.0797 21.9685 30.8795 23.3004 33.5345C24.2547 35.4382 25.454 37.1358 26.9594 38.5719C27.0564 38.6609 27.1533 38.7444 27.2452 38.8224C27.8372 38.2324 28.3883 37.6368 28.9854 37.1024C31.2359 35.1042 33.7824 33.8184 36.6862 33.4511C40.4013 32.9779 43.6725 34.1246 46.515 36.7518C46.8977 37.108 47.2397 37.5143 47.602 37.8928C47.7806 38.0765 47.7959 38.2324 47.6377 38.4717C46.4384 40.2974 44.8207 41.4941 42.9121 42.2678C41.3046 42.9191 39.6358 43.1806 37.9365 43.125C34.5326 43.0192 31.3074 42.1398 28.3628 40.2139C28.0005 39.9746 27.6484 39.5181 27.2911 39.5181C26.9339 39.5181 26.5818 39.969 26.2195 40.2083C23.9128 41.7001 21.4224 42.5851 18.7585 42.9413C16.5999 43.2308 14.4667 43.2085 12.3642 42.5183C10.3892 41.8726 8.68986 40.7538 7.40385 38.956C6.90883 38.2658 6.88842 38.1266 7.32219 37.403C7.91417 36.4122 8.72048 35.6719 9.68499 35.1543C11.5477 34.1524 13.543 33.8852 15.5945 33.9576C15.6251 33.9576 15.6609 33.991 15.6915 34.0077C15.7068 34.0466 15.7221 34.0856 15.7323 34.1301ZM27.5463 39.084C27.6637 39.1619 27.7249 39.2064 27.7912 39.251C29.557 40.3586 31.4605 41.021 33.4609 41.3717C35.8595 41.7891 38.2376 41.7056 40.5748 40.9264C41.8711 40.4922 43.0703 39.8577 44.045 38.7945C44.4227 38.3826 44.4227 38.3437 44.0501 37.9541C42.1824 36.017 39.9267 35.0485 37.3802 34.9205C34.9409 34.7981 32.6495 35.4549 30.5062 36.7128C29.4396 37.3473 28.4496 38.0988 27.5463 39.084ZM30.9144 7.9693C30.9042 7.76892 30.8889 7.44607 30.8736 7.12324C30.8685 7.02305 30.8532 6.92842 30.8328 6.82823C30.399 4.55168 29.2099 2.82619 27.5565 1.42352C27.2758 1.18418 27.0309 1.20643 26.8012 1.46804C26.2041 2.14154 25.5611 2.78722 25.0304 3.52195C23.9281 5.05263 23.331 6.77814 23.576 8.77638C23.8107 10.6967 24.811 12.0437 26.2501 13.0567C27.4697 13.9139 26.9951 13.8972 28.1995 13.0512C29.8427 11.8934 30.8736 10.3071 30.9144 7.9693Z" fill="white"/>
</svg>
