<svg width="50" height="35" viewBox="0 0 50 35" fill="none" xmlns="http://www.w3.org/2000/svg">
<path d="M14.0924 26.0171C13.8454 26.0171 13.6028 26.3168 13.3472 26.4689C11.7441 27.4485 10.011 28.0345 8.16091 28.2671C6.66179 28.4594 5.17566 28.4415 3.71554 27.9897C2.34207 27.5648 1.16358 26.8267 0.271042 25.6458C-0.0712423 25.1896 -0.0885752 25.1001 0.214715 24.6215C0.626322 23.9684 1.18525 23.4809 1.85682 23.1409C3.1523 22.4789 4.53876 22.3044 5.96422 22.3536C5.98588 22.3536 6.00755 22.376 6.03354 22.3894C6.04221 22.4162 6.05087 22.4431 6.05954 22.4699C5.90789 22.5281 5.75625 22.5997 5.60027 22.6399C4.47377 22.9172 3.49024 23.4585 2.64536 24.2681C2.58037 24.3307 2.52837 24.4068 2.46772 24.4739C2.02578 24.9749 2.00412 24.9793 2.52838 25.4937C3.47725 26.4241 4.64707 26.9296 5.92089 27.198C6.89575 27.4038 7.87928 27.4395 8.86714 27.3546C10.5482 27.2069 12.1427 26.7373 13.6288 25.9053C13.6808 25.874 13.7284 25.8337 13.7891 25.789C13.3688 25.5161 12.9529 25.2656 12.5586 24.9838C10.9945 23.8611 9.70769 22.4744 8.81081 20.7344C7.71897 18.6141 7.71031 16.4312 8.57252 14.2215C9.30475 12.3518 10.6089 11.0277 12.2553 10.0168C12.3376 9.96761 12.4156 9.91392 12.4893 9.86471C12.121 9.51134 11.7441 9.19822 11.4234 8.83143C10.1366 7.3553 9.98498 4.99798 11.0162 3.32504C11.7181 2.18439 12.6843 1.3524 13.7934 0.68143C13.9061 0.614334 14.1141 0.591979 14.218 0.650129C15.5092 1.39266 16.627 2.33201 17.2986 3.73209C18.1391 5.49002 17.8099 7.64159 16.4927 9.0372C16.2328 9.31453 15.9251 9.54713 15.6218 9.81551C15.8861 9.95865 16.1461 10.0928 16.3974 10.2449C18.2128 11.3498 19.5516 12.8572 20.1149 14.9998C20.6824 17.1603 20.2102 19.0793 18.7934 20.7657C18.2215 21.4411 17.5369 21.9734 16.8177 22.4655C16.6747 22.5639 16.549 22.5818 16.3931 22.5057C14.725 21.6871 13.6591 20.381 13.3558 18.471C13.1175 16.9814 13.4382 15.5635 13.9321 14.1768C13.9624 14.0918 14.0317 14.0158 14.0837 13.9397C14.1054 13.9442 14.1314 13.9487 14.153 13.9531C14.1617 14.0158 14.1834 14.0784 14.179 14.141C14.1444 15.389 14.231 16.6236 14.595 17.8179C14.8723 18.7259 15.3012 19.5356 16.0551 20.126C16.1851 20.2289 16.2717 20.2379 16.3974 20.1215C17.5889 19.0435 18.2865 17.7597 18.1261 16.051C18.0482 15.2235 17.8185 14.472 17.3723 13.7832C16.588 12.5665 15.5222 11.6808 14.309 10.9606C14.2224 10.9114 14.0577 10.9159 13.9711 10.9696C12.7666 11.6853 11.7137 12.5754 10.9598 13.8011C10.4616 14.6107 10.1583 15.4963 10.0543 16.4491C9.83333 18.471 10.3836 20.3139 11.3108 22.0584C11.9737 23.3109 12.8099 24.4291 13.8541 25.373C13.9191 25.4311 13.9884 25.4848 14.0534 25.5385M16.614 5.2619C16.6054 5.12771 16.5967 4.91747 16.5837 4.70276C16.5794 4.64014 16.5707 4.57303 16.5577 4.51041C16.2587 3.01192 15.4312 1.87576 14.283 0.954297C14.0881 0.797738 13.9191 0.811156 13.7588 0.981134C13.3428 1.42397 12.8966 1.84891 12.5283 2.33201C11.7614 3.33846 11.3455 4.47463 11.5188 5.78972C11.6834 7.05561 12.3766 7.94128 13.3775 8.60777C14.2267 9.17138 13.8931 9.16245 14.7336 8.60331C15.8688 7.84288 16.5837 6.80065 16.614 5.2619Z" fill="white"/>
<path d="M35.9501 25.5702C36.0107 25.521 36.0801 25.4673 36.1494 25.4047C37.1936 24.4609 38.0298 23.3426 38.6927 22.0901C39.6199 20.3412 40.1702 18.5027 39.9492 16.4809C39.8452 15.5281 39.5376 14.6424 39.0436 13.8328C38.2898 12.6072 37.2412 11.7125 36.0324 11.0013C35.9458 10.9476 35.7811 10.9432 35.6945 10.9924C34.4813 11.7125 33.4155 12.5982 32.6312 13.8149C32.185 14.5037 31.8903 15.2552 31.8124 16.0828C31.652 17.7915 32.4146 19.0753 33.6061 20.1533C33.7317 20.2696 33.8184 20.2606 33.9484 20.1577C34.7023 19.5673 35.1312 18.7577 35.4085 17.8496C35.7768 16.6508 35.8634 15.4207 35.8244 14.1727C35.8244 14.1101 35.8418 14.0475 35.8504 13.9849C35.8721 13.9804 35.8981 13.9759 35.9198 13.9715C35.9718 14.052 36.0411 14.1235 36.0714 14.2085C36.5697 15.5952 36.886 17.0132 36.6477 18.5027C36.3444 20.4127 35.2829 21.7189 33.6104 22.5374C33.4544 22.6135 33.3331 22.5956 33.1858 22.4972C32.4666 22.0051 31.782 21.4728 31.2101 20.7974C29.7933 19.1155 29.321 17.1966 29.8886 15.0316C30.4519 12.889 31.7907 11.377 33.6061 10.2767C33.8574 10.1246 34.1174 9.99486 34.3816 9.84725C34.074 9.57439 33.7707 9.34178 33.5108 9.06892C32.1936 7.67331 31.8687 5.52176 32.7049 3.76383C33.3765 2.35927 34.4943 1.42439 35.7855 0.681851C35.8894 0.619228 36.0974 0.646069 36.2101 0.713166C37.3192 1.38413 38.2854 2.2206 38.9873 3.35677C40.0185 5.02971 39.8669 7.38704 38.58 8.86316C38.2594 9.22996 37.8825 9.54307 37.5142 9.89645C37.5879 9.94118 37.6659 9.99933 37.7482 10.0485C39.3989 11.055 40.6987 12.379 41.431 14.2533C42.2932 16.4674 42.2845 18.6458 41.1927 20.7661C40.2958 22.5061 39.0047 23.8973 37.4449 25.0155C37.0506 25.2974 36.6347 25.5478 36.2144 25.8207C36.275 25.8654 36.3227 25.9057 36.3747 25.937C37.8608 26.769 39.4553 27.2387 41.1363 27.3863C42.1242 27.4713 43.1077 27.4355 44.0826 27.2297C45.3521 26.9613 46.5219 26.4604 47.4751 25.5255C47.9994 25.0111 47.9777 25.0021 47.5358 24.5056C47.4751 24.4385 47.4231 24.3625 47.3581 24.2998C46.5132 23.4902 45.5297 22.9445 44.4032 22.6672C44.2472 22.6269 44.0956 22.5553 43.9439 22.4972C43.9526 22.4704 43.9613 22.4435 43.9699 22.4167C43.9916 22.4033 44.0133 22.3809 44.0349 22.3809C45.4604 22.3317 46.8469 22.5061 48.1423 23.1682C48.8139 23.5081 49.3728 24.0002 49.7844 24.6488C50.0877 25.1274 50.0704 25.2168 49.7281 25.6731C48.8356 26.854 47.6571 27.5921 46.2836 28.017C44.8235 28.4688 43.3417 28.4867 41.8383 28.2943C39.9882 28.0573 38.2551 27.4758 36.652 26.4961C36.4007 26.3396 36.1537 26.0444 35.9068 26.0444M35.2829 8.62161C36.1191 9.18075 35.7898 9.1897 36.639 8.62609C37.6399 7.9596 38.3331 7.07393 38.4977 5.80804C38.6667 4.49295 38.2551 3.36125 37.4882 2.35032C37.1199 1.86723 36.6737 1.44229 36.2577 0.999451C36.0974 0.829473 35.9284 0.816055 35.7335 0.972614C34.5853 1.89407 33.7577 3.03023 33.4588 4.52872C33.4458 4.59135 33.4371 4.65844 33.4328 4.72106C33.4198 4.9313 33.4111 5.14601 33.4025 5.2802C33.4285 6.81895 34.1434 7.86566 35.2829 8.62161Z" fill="white"/>
<path d="M13.3573 27.3077C13.171 27.3793 12.989 27.4687 12.7984 27.5135C11.4249 27.849 10.2248 28.5154 9.18925 29.504C9.11126 29.58 9.04627 29.674 8.97261 29.759C8.43536 30.3673 8.40504 30.3763 9.04628 31.007C10.2074 32.1431 11.6372 32.7604 13.1883 33.087C14.3755 33.3375 15.58 33.3822 16.7845 33.2748C18.8382 33.0959 20.7836 32.5234 22.599 31.508C22.664 31.4722 22.7203 31.423 22.7983 31.3648C22.2827 31.0293 21.7758 30.7252 21.2948 30.3807C19.3885 29.012 17.8113 27.3122 16.7152 25.1875C15.3807 22.5975 15.3677 19.9316 16.4249 17.2298C17.3174 14.944 18.9119 13.3248 20.9222 12.0947C21.0219 12.0321 21.1215 11.965 21.2082 11.9113C20.7576 11.4774 20.2983 11.0972 19.9084 10.6499C18.3356 8.84721 18.1493 5.97101 19.4101 3.9268C20.268 2.53566 21.4465 1.5158 22.8026 0.697218C22.9413 0.612229 23.1926 0.585397 23.3226 0.661439C24.8997 1.56948 26.2645 2.71459 27.0834 4.42778C28.1102 6.57487 27.7116 9.20507 26.0998 10.9093C25.7792 11.2448 25.4066 11.5311 25.034 11.8621C25.3546 12.041 25.6752 12.202 25.9785 12.3854C28.1969 13.7318 29.8346 15.5792 30.5192 18.196C31.2124 20.8351 30.6362 23.179 28.9031 25.2367C28.2055 26.0642 27.3693 26.7128 26.4898 27.3167C26.3121 27.4374 26.1605 27.4598 25.9742 27.3659C23.9335 26.3684 22.638 24.7715 22.2654 22.441C21.9751 20.6204 22.365 18.8938 22.9716 17.1985C23.0106 17.0912 23.0929 17.0062 23.1579 16.9078C23.1839 16.9122 23.2143 16.9212 23.2402 16.9256C23.2532 17.0017 23.2749 17.0777 23.2749 17.1582C23.2316 18.6836 23.3399 20.1865 23.7862 21.6492C24.1241 22.7586 24.6484 23.7471 25.5712 24.4673C25.7315 24.5925 25.8355 24.6015 25.9915 24.4628C27.4473 23.1433 28.3832 21.5777 28.1839 19.4887C28.0885 18.4778 27.7246 17.5608 27.183 16.7199C26.2255 15.2348 24.9213 14.1478 23.4439 13.2711C23.3399 13.2085 23.1406 13.2174 23.0323 13.2801C21.5591 14.1523 20.2767 15.2437 19.3581 16.7422C18.7515 17.7308 18.3789 18.8133 18.249 19.9763C17.976 22.4455 18.6519 24.6954 19.7827 26.8291C20.593 28.3589 21.6111 29.7232 22.8893 30.8772C22.9716 30.9488 23.0539 31.0159 23.1319 31.0785C23.6345 30.6044 24.1024 30.1258 24.6094 29.6964C26.5201 28.0905 28.6821 27.0572 31.1474 26.762C34.3017 26.3818 37.0789 27.3032 39.4922 29.4145C39.8172 29.7008 40.1075 30.0274 40.4151 30.3315C40.5668 30.4791 40.5798 30.6044 40.4454 30.7967C39.4273 32.2639 38.0538 33.2256 36.4333 33.8474C35.0685 34.3708 33.6517 34.581 32.209 34.5362C29.319 34.4513 26.5808 33.7445 24.0808 32.1968C23.7732 32.0045 23.4742 31.6377 23.1709 31.6377C22.8676 31.6377 22.5687 32 22.261 32.1923C20.3027 33.3911 18.1883 34.1024 15.9266 34.3886C14.0939 34.6212 12.2828 34.6033 10.4977 34.0487C8.82098 33.5298 7.37818 32.6307 6.28634 31.1859C5.86607 30.6312 5.84874 30.5194 6.21702 29.9379C6.71961 29.1417 7.40418 28.5468 8.22306 28.1308C9.8045 27.3256 11.4986 27.1109 13.2403 27.169C13.2663 27.169 13.2967 27.1959 13.3227 27.2093C13.3357 27.2406 13.3487 27.2719 13.3573 27.3077ZM23.3876 31.2888C23.4872 31.3514 23.5392 31.3872 23.5955 31.423C25.0946 32.3131 26.7107 32.8454 28.4092 33.1272C30.4455 33.4627 32.4646 33.3956 34.449 32.7694C35.5495 32.4205 36.5677 31.9105 37.3952 31.0562C37.7158 30.7252 37.7158 30.6939 37.3995 30.3807C35.8138 28.8241 33.8987 28.0458 31.7367 27.9429C29.6657 27.8445 27.7203 28.3723 25.9005 29.3832C24.995 29.8932 24.1544 30.497 23.3876 31.2888ZM26.2471 6.28413C26.2385 6.1231 26.2255 5.86365 26.2125 5.60421C26.2081 5.5237 26.1952 5.44766 26.1778 5.36714C25.8095 3.53764 24.8 2.15098 23.3962 1.02376C23.1579 0.831416 22.9499 0.849303 22.755 1.05954C22.248 1.60078 21.7021 2.11967 21.2515 2.71011C20.3157 3.94022 19.8087 5.32688 20.0167 6.93273C20.216 8.47595 21.0652 9.55844 22.287 10.3725C23.3226 11.0614 22.9196 11.048 23.9421 10.3681C25.3373 9.43766 26.2125 8.16284 26.2471 6.28413Z" fill="white"/>
</svg>
