<svg width="50" height="39" viewBox="0 0 50 39" fill="none" xmlns="http://www.w3.org/2000/svg">
<path d="M14.0924 29.1998C13.8454 29.1998 13.6028 29.5444 13.3472 29.7192C11.7441 30.8453 10.011 31.519 8.16091 31.7863C6.66179 32.0075 5.17566 31.9869 3.71554 31.4675C2.34207 30.979 1.16358 30.1306 0.271042 28.773C-0.0712423 28.2485 -0.0885752 28.1457 0.214715 27.5955C0.626322 26.8447 1.18525 26.2842 1.85682 25.8934C3.1523 25.1323 4.53876 24.9318 5.96422 24.9884C5.98588 24.9884 6.00755 25.0141 6.03354 25.0295C6.04221 25.0603 6.05087 25.0912 6.05954 25.1221C5.90789 25.1889 5.75625 25.2712 5.60027 25.3175C4.47377 25.6363 3.49024 26.2585 2.64536 27.1892C2.58037 27.2612 2.52837 27.3486 2.46772 27.4258C2.02578 28.0017 2.00412 28.0068 2.52838 28.5982C3.47725 29.6678 4.64707 30.2488 5.92089 30.5574C6.89575 30.7939 7.87928 30.835 8.86714 30.7373C10.5482 30.5676 12.1427 30.0277 13.6288 29.0713C13.6808 29.0353 13.7284 28.989 13.7891 28.9376C13.3688 28.6239 12.9529 28.3359 12.5586 28.012C10.9945 26.7213 9.70769 25.1272 8.81081 23.1269C7.71897 20.6895 7.71031 18.1801 8.57252 15.6399C9.30475 13.4904 10.6089 11.9683 12.2553 10.8062C12.3376 10.7496 12.4156 10.6879 12.4893 10.6313C12.121 10.2251 11.7441 9.86516 11.4234 9.4435C10.1366 7.74657 9.98498 5.03664 11.0162 3.11345C11.7181 1.80219 12.6843 0.845743 13.7934 0.0744138C13.9061 -0.00271913 14.1141 -0.0284182 14.218 0.0384304C15.5092 0.892035 16.627 1.97189 17.2986 3.5814C18.1391 5.60228 17.8099 8.07568 16.4927 9.68005C16.2328 9.99887 15.9251 10.2663 15.6218 10.5748C15.8861 10.7393 16.1461 10.8936 16.3974 11.0684C18.2128 12.3386 19.5516 14.0715 20.1149 16.5346C20.6824 19.0183 20.2102 21.2243 18.7934 23.1629C18.2215 23.9394 17.5369 24.5513 16.8177 25.1169C16.6747 25.23 16.549 25.2506 16.3931 25.1632C14.725 24.2222 13.6591 22.7207 13.3558 20.5249C13.1175 18.8126 13.4382 17.1825 13.9321 15.5884C13.9624 15.4907 14.0317 15.4033 14.0837 15.3159C14.1054 15.321 14.1314 15.3262 14.153 15.3313C14.1617 15.4033 14.1834 15.4753 14.179 15.5473C14.1444 16.982 14.231 18.4012 14.595 19.7742C14.8723 20.818 15.3012 21.7488 16.0551 22.4275C16.1851 22.5458 16.2717 22.5561 16.3974 22.4224C17.5889 21.1831 18.2865 19.7073 18.1261 17.743C18.0482 16.7917 17.8185 15.9278 17.3723 15.1359C16.588 13.7372 15.5222 12.7191 14.309 11.8912C14.2224 11.8346 14.0577 11.8398 13.9711 11.9015C12.7666 12.7242 11.7137 13.7475 10.9598 15.1565C10.4616 16.0872 10.1583 17.1054 10.0543 18.2007C9.83333 20.5249 10.3836 22.6435 11.3108 24.649C11.9737 26.0888 12.8099 27.3743 13.8541 28.4593C13.9191 28.5262 13.9884 28.5879 14.0534 28.6496M16.614 5.34003C16.6054 5.18577 16.5967 4.94408 16.5837 4.69726C16.5794 4.62527 16.5707 4.54812 16.5577 4.47613C16.2587 2.7535 15.4312 1.44739 14.283 0.388096C14.0881 0.208119 13.9191 0.223544 13.7588 0.418948C13.3428 0.928025 12.8966 1.41653 12.5283 1.97189C11.7614 3.12888 11.3455 4.435 11.5188 5.94681C11.6834 7.40205 12.3766 8.4202 13.3775 9.18639C14.2267 9.8343 13.8931 9.82403 14.7336 9.18126C15.8688 8.30708 16.5837 7.10895 16.614 5.34003Z" fill="white"/>
<path d="M35.9501 28.6855C36.0107 28.629 36.0801 28.5673 36.1494 28.4953C37.1936 27.4103 38.0298 26.1247 38.6927 24.6849C39.6199 22.6743 40.1702 20.5609 39.9492 18.2366C39.8452 17.1413 39.5376 16.1232 39.0436 15.1924C38.2898 13.7835 37.2412 12.755 36.0324 11.9374C35.9458 11.8757 35.7811 11.8706 35.6945 11.9271C34.4813 12.755 33.4155 13.7732 32.6312 15.1718C32.185 15.9637 31.8903 16.8276 31.8124 17.7789C31.652 19.7433 32.4146 21.2191 33.6061 22.4583C33.7317 22.592 33.8184 22.5817 33.9484 22.4635C34.7023 21.7847 35.1312 20.854 35.4085 19.8101C35.7768 18.432 35.8634 17.0179 35.8244 15.5832C35.8244 15.5112 35.8418 15.4392 35.8504 15.3673C35.8721 15.3621 35.8981 15.357 35.9198 15.3518C35.9718 15.4444 36.0411 15.5267 36.0714 15.6244C36.5697 17.2184 36.886 18.8485 36.6477 20.5609C36.3444 22.7566 35.2829 24.2581 33.6104 25.1991C33.4544 25.2865 33.3331 25.266 33.1858 25.1528C32.4666 24.5872 31.782 23.9753 31.2101 23.1988C29.7933 21.2653 29.321 19.0593 29.8886 16.5705C30.4519 14.1074 31.7907 12.3693 33.6061 11.1044C33.8574 10.9295 34.1174 10.7804 34.3816 10.6107C34.074 10.297 33.7707 10.0296 33.5108 9.71597C32.1936 8.1116 31.8687 5.63821 32.7049 3.61733C33.3765 2.00268 34.4943 0.927953 35.7855 0.0743483C35.8894 0.00235751 36.0974 0.0332144 36.2101 0.110347C37.3192 0.881677 38.2854 1.84327 38.9873 3.14939C40.0185 5.07257 39.8669 7.78251 38.58 9.47943C38.2594 9.90109 37.8825 10.261 37.5142 10.6673C37.5879 10.7187 37.6659 10.7855 37.7482 10.8421C39.3989 11.9991 40.6987 13.5212 41.431 15.6758C42.2932 18.2212 42.2845 20.7254 41.1927 23.1628C40.2958 25.1631 39.0047 26.7624 37.4449 28.0479C37.0506 28.3719 36.6347 28.6598 36.2144 28.9735C36.275 29.0249 36.3227 29.0712 36.3747 29.1072C37.8608 30.0636 39.4553 30.6036 41.1363 30.7733C42.1242 30.871 43.1077 30.8298 44.0826 30.5933C45.3521 30.2848 46.5219 29.7088 47.4751 28.6341C47.9994 28.0428 47.9777 28.0325 47.5358 27.4617C47.4751 27.3846 47.4231 27.2971 47.3581 27.2252C46.5132 26.2944 45.5297 25.6671 44.4032 25.3483C44.2472 25.302 44.0956 25.2197 43.9439 25.1528C43.9526 25.122 43.9613 25.0911 43.9699 25.0603C43.9916 25.0449 44.0133 25.0191 44.0349 25.0191C45.4604 24.9626 46.8469 25.1631 48.1423 25.9242C48.8139 26.315 49.3728 26.8806 49.7844 27.6262C50.0877 28.1765 50.0704 28.2793 49.7281 28.8038C48.8356 30.1614 47.6571 31.0098 46.2836 31.4983C44.8235 32.0177 43.3417 32.0382 41.8383 31.8171C39.9882 31.5446 38.2551 30.8761 36.652 29.75C36.4007 29.57 36.1537 29.2306 35.9068 29.2306M35.2829 9.20175C36.1191 9.84452 35.7898 9.85481 36.639 9.20689C37.6399 8.44071 38.3331 7.42256 38.4977 5.96732C38.6667 4.45551 38.2551 3.15453 37.4882 1.99239C37.1199 1.43704 36.6737 0.948533 36.2577 0.439456C36.0974 0.244052 35.9284 0.228627 35.7335 0.408604C34.5853 1.4679 33.7577 2.774 33.4588 4.49664C33.4458 4.56863 33.4371 4.64576 33.4328 4.71775C33.4198 4.95943 33.4111 5.20626 33.4025 5.36053C33.4285 7.12944 34.1434 8.33272 35.2829 9.20175Z" fill="white"/>
<path d="M13.3573 30.6835C13.171 30.7658 12.989 30.8686 12.7984 30.92C11.4249 31.3057 10.2248 32.0719 9.18925 33.2083C9.11126 33.2957 9.04627 33.4037 8.97261 33.5014C8.43536 34.2008 8.40504 34.211 9.04628 34.9361C10.2074 36.2422 11.6372 36.9518 13.1883 37.3272C14.3755 37.6152 15.58 37.6666 16.7845 37.5432C18.8382 37.3375 20.7836 36.6793 22.599 35.512C22.664 35.4709 22.7203 35.4143 22.7983 35.3475C22.2827 34.9618 21.7758 34.6121 21.2948 34.2162C19.3885 32.6427 17.8113 30.6886 16.7152 28.2461C15.3807 25.2688 15.3677 22.204 16.4249 19.0981C17.3174 16.4705 18.9119 14.609 20.9222 13.1949C21.0219 13.1229 21.1215 13.0458 21.2082 12.9841C20.7576 12.4853 20.2983 12.0482 19.9084 11.534C18.3356 9.46165 18.1493 6.15521 19.4101 3.80523C20.268 2.20601 21.4465 1.03359 22.8026 0.0925632C22.9413 -0.00513849 23.1926 -0.0359848 23.3226 0.0514326C24.8997 1.0953 26.2645 2.41169 27.0834 4.38115C28.1102 6.84941 27.7116 9.87303 26.0998 11.8322C25.7792 12.2179 25.4066 12.547 25.034 12.9275C25.3546 13.1332 25.6752 13.3183 25.9785 13.5291C28.1969 15.0769 29.8346 17.2007 30.5192 20.2088C31.2124 23.2427 30.6362 25.9373 28.9031 28.3027C28.2055 29.254 27.3693 29.9996 26.4898 30.6938C26.3121 30.8326 26.1605 30.8583 25.9742 30.7503C23.9335 29.6036 22.638 27.7679 22.2654 25.0888C21.9751 22.9959 22.365 21.011 22.9716 19.0621C23.0106 18.9387 23.0929 18.841 23.1579 18.7279C23.1839 18.733 23.2143 18.7433 23.2402 18.7485C23.2532 18.8359 23.2749 18.9233 23.2749 19.0159C23.2316 20.7693 23.3399 22.4971 23.7862 24.1786C24.1241 25.4539 24.6484 26.5903 25.5712 27.4182C25.7315 27.5622 25.8355 27.5725 25.9915 27.4131C27.4473 25.8961 28.3832 24.0963 28.1839 21.6949C28.0885 20.5328 27.7246 19.4787 27.183 18.5119C26.2255 16.8047 24.9213 15.5552 23.4439 14.5473C23.3399 14.4753 23.1406 14.4856 23.0323 14.5576C21.5591 15.5603 20.2767 16.815 19.3581 18.5376C18.7515 19.674 18.3789 20.9185 18.249 22.2554C17.976 25.0939 18.6519 27.6805 19.7827 30.1333C20.593 31.8919 21.6111 33.4603 22.8893 34.787C22.9716 34.8692 23.0539 34.9464 23.1319 35.0184C23.6345 34.4733 24.1024 33.9231 24.6094 33.4294C26.5201 31.5834 28.6821 30.3955 31.1474 30.0562C34.3017 29.6191 37.0789 30.6784 39.4922 33.1055C39.8172 33.4346 40.1075 33.8099 40.4151 34.1596C40.5668 34.3293 40.5798 34.4733 40.4454 34.6944C39.4273 36.3811 38.0538 37.4866 36.4333 38.2014C35.0685 38.803 33.6517 39.0447 32.209 38.9933C29.319 38.8956 26.5808 38.0831 24.0808 36.3039C23.7732 36.0828 23.4742 35.6611 23.1709 35.6611C22.8676 35.6611 22.5687 36.0777 22.261 36.2988C20.3027 37.6769 18.1883 38.4945 15.9266 38.8236C14.0939 39.091 12.2828 39.0704 10.4977 38.4328C8.82098 37.8363 7.37818 36.8027 6.28634 35.1418C5.86607 34.5041 5.84874 34.3756 6.21702 33.7071C6.71961 32.7918 7.40418 32.1079 8.22306 31.6297C9.8045 30.7041 11.4986 30.4572 13.2403 30.5241C13.2663 30.5241 13.2967 30.5549 13.3227 30.5704C13.3357 30.6064 13.3487 30.6424 13.3573 30.6835ZM23.3876 35.2601C23.4872 35.332 23.5392 35.3732 23.5955 35.4143C25.0946 36.4376 26.7107 37.0495 28.4092 37.3735C30.4455 37.7592 32.4646 37.682 34.449 36.9621C35.5495 36.561 36.5677 35.9748 37.3952 34.9927C37.7158 34.6121 37.7158 34.5761 37.3995 34.2162C35.8138 32.4267 33.8987 31.532 31.7367 31.4137C29.6657 31.3006 27.7203 31.9073 25.9005 33.0695C24.995 33.6557 24.1544 34.3499 23.3876 35.2601ZM26.2471 6.51518C26.2385 6.33006 26.2255 6.0318 26.2125 5.73355C26.2081 5.64099 26.1952 5.55358 26.1778 5.46102C25.8095 3.35786 24.8 1.76378 23.3962 0.467949C23.1579 0.246835 22.9499 0.267397 22.755 0.50908C22.248 1.13129 21.7021 1.72778 21.2515 2.40655C20.3157 3.82066 19.8087 5.41474 20.0167 7.26079C20.216 9.03485 21.0652 10.2793 22.287 11.2151C23.3226 12.007 22.9196 11.9916 23.9421 11.21C25.3373 10.1404 26.2125 8.6749 26.2471 6.51518Z" fill="white"/>
</svg>
