<svg width="59" height="30" viewBox="0 0 59 30" fill="none" xmlns="http://www.w3.org/2000/svg">
<path d="M16.5985 21.9358C16.3077 21.9358 16.0219 22.1902 15.7208 22.3194C13.8326 23.1512 11.7913 23.6488 9.61222 23.8463C7.8465 24.0096 6.09609 23.9944 4.3763 23.6108C2.75858 23.2499 1.37051 22.6232 0.319243 21.6205C-0.0839118 21.2331 -0.104327 21.1571 0.252899 20.7507C0.737706 20.1962 1.39603 19.7822 2.18703 19.4935C3.71289 18.9314 5.34592 18.7832 7.02488 18.825C7.0504 18.825 7.07591 18.844 7.10653 18.8554C7.11674 18.8782 7.12694 18.901 7.13715 18.9238C6.95854 18.9732 6.77993 19.0339 6.59621 19.0681C5.26937 19.3036 4.11093 19.7632 3.1158 20.4507C3.03925 20.5038 2.97801 20.5684 2.90657 20.6254C2.38604 21.0508 2.36053 21.0546 2.97802 21.4914C4.09563 22.2814 5.47349 22.7106 6.97384 22.9385C8.12207 23.1132 9.28051 23.1436 10.444 23.0714C12.4241 22.9461 14.3021 22.5473 16.0525 21.8408C16.1137 21.8142 16.1699 21.78 16.2413 21.742C15.7463 21.5104 15.2564 21.2977 14.792 21.0584C12.9497 20.105 11.4341 18.9276 10.3777 17.4501C9.09169 15.6497 9.08149 13.7962 10.097 11.9199C10.9595 10.3322 12.4956 9.20793 14.4348 8.34953C14.5317 8.30775 14.6236 8.26217 14.7103 8.22039C14.2766 7.92033 13.8326 7.65445 13.455 7.343C11.9393 6.08958 11.7607 4.08792 12.9752 2.66739C13.802 1.69884 14.94 0.992374 16.2464 0.422641C16.3791 0.365667 16.6241 0.346685 16.7465 0.396062C18.2673 1.02657 19.5839 1.82419 20.3749 3.01303C21.365 4.50573 20.9771 6.33268 19.4257 7.51772C19.1195 7.75321 18.7572 7.95072 18.4 8.17861C18.7113 8.30015 19.0175 8.4141 19.3135 8.54324C21.4517 9.4814 23.0286 10.7614 23.692 12.5807C24.3606 14.4153 23.8043 16.0447 22.1356 17.4767C21.4619 18.0502 20.6556 18.5022 19.8085 18.92C19.6401 19.0035 19.4921 19.0187 19.3084 18.9542C17.3436 18.2591 16.0882 17.15 15.731 15.5282C15.4503 14.2634 15.828 13.0593 16.4097 11.8819C16.4454 11.8097 16.5271 11.7451 16.5883 11.6806C16.6138 11.6844 16.6445 11.6882 16.67 11.692C16.6802 11.7451 16.7057 11.7983 16.7006 11.8515C16.6598 12.9112 16.7618 13.9595 17.1905 14.9736C17.5171 15.7447 18.0223 16.4321 18.9103 16.9335C19.0634 17.0209 19.1655 17.0285 19.3135 16.9297C20.7169 16.0143 21.5385 14.9242 21.3496 13.4733C21.2578 12.7707 20.9873 12.1326 20.4617 11.5476C19.538 10.5145 18.2826 9.76247 16.8537 9.15095C16.7516 9.10917 16.5577 9.11297 16.4557 9.15855C15.037 9.76626 13.7969 10.5221 12.9089 11.5628C12.322 12.2503 11.9648 13.0023 11.8423 13.8114C11.5821 15.5282 12.2302 17.093 13.3223 18.5743C14.1031 19.6378 15.088 20.5874 16.3179 21.3888C16.3944 21.4382 16.4761 21.4838 16.5526 21.5293M19.5686 4.31203C19.5584 4.19808 19.5482 4.01956 19.5329 3.83725C19.5278 3.78407 19.5176 3.72709 19.5023 3.67392C19.1502 2.40151 18.1754 1.43677 16.8231 0.654338C16.5934 0.5214 16.3944 0.532794 16.2056 0.677126C15.7157 1.05315 15.19 1.41398 14.7563 1.82418C13.853 2.67878 13.3631 3.64354 13.5672 4.76021C13.7611 5.83511 14.5777 6.58715 15.7565 7.15309C16.7567 7.63166 16.3638 7.62407 17.3538 7.1493C18.6909 6.5036 19.5329 5.61861 19.5686 4.31203Z" fill="white"/>
<path d="M42.3431 21.5554C42.4146 21.5136 42.4963 21.4681 42.5779 21.4149C43.8078 20.6135 44.7927 19.6639 45.5735 18.6004C46.6656 17.1153 47.3137 15.5542 47.0534 13.8374C46.931 13.0284 46.5686 12.2764 45.9869 11.5889C45.0989 10.5482 43.8639 9.78853 42.4401 9.18462C42.338 9.13904 42.1441 9.13524 42.0421 9.17702C40.6132 9.78854 39.3578 10.5406 38.4341 11.5737C37.9085 12.1586 37.5614 12.7967 37.4696 13.4994C37.2808 14.9503 38.1789 16.0404 39.5823 16.9558C39.7303 17.0545 39.8324 17.0469 39.9855 16.9596C40.8734 16.4582 41.3786 15.7707 41.7052 14.9997C42.139 13.9818 42.2411 12.9373 42.1952 11.8776C42.1952 11.8244 42.2156 11.7712 42.2258 11.718C42.2513 11.7142 42.2819 11.7104 42.3074 11.7066C42.3687 11.775 42.4503 11.8358 42.486 11.9079C43.0729 13.0854 43.4455 14.2894 43.1648 15.5542C42.8076 17.1761 41.5573 18.2852 39.5874 18.9802C39.4037 19.0448 39.2608 19.0296 39.0873 18.946C38.2402 18.5282 37.4339 18.0762 36.7602 17.5027C35.0915 16.0746 34.5352 14.4452 35.2037 12.6068C35.8672 10.7875 37.4441 9.50367 39.5823 8.56931C39.8783 8.44017 40.1845 8.33002 40.4958 8.20468C40.1335 7.97299 39.7762 7.77547 39.47 7.54378C37.9187 6.35874 37.5359 4.5318 38.5208 3.0391C39.3118 1.84646 40.6285 1.05262 42.1492 0.422121C42.2717 0.368945 42.5167 0.391738 42.6493 0.448711C43.9558 1.01844 45.0938 1.72871 45.9205 2.69346C47.1351 4.11399 46.9565 6.11565 45.4408 7.36907C45.0632 7.68052 44.6192 7.9464 44.1854 8.24645C44.2722 8.28444 44.364 8.33381 44.461 8.37559C46.4053 9.23019 47.9363 10.3545 48.7987 11.9459C49.8143 13.826 49.8041 15.6758 48.5181 17.4761C47.4617 18.9536 45.9409 20.1349 44.1038 21.0844C43.6394 21.3237 43.1495 21.5364 42.6545 21.7681C42.7259 21.8061 42.782 21.8403 42.8433 21.8669C44.5937 22.5733 46.4717 22.9722 48.4517 23.0975C49.6153 23.1697 50.7737 23.1393 51.9219 22.9646C53.4172 22.7367 54.795 22.3113 55.9177 21.5174C56.5352 21.0806 56.5097 21.073 55.9892 20.6514C55.9178 20.5945 55.8565 20.5299 55.78 20.4767C54.7848 19.7892 53.6264 19.3259 52.2996 19.0904C52.1158 19.0562 51.9372 18.9954 51.7586 18.946C51.7688 18.9233 51.779 18.9005 51.7892 18.8777C51.8147 18.8663 51.8403 18.8473 51.8658 18.8473C53.5447 18.8055 55.1778 18.9536 56.7036 19.5158C57.4946 19.8044 58.153 20.2222 58.6378 20.773C58.995 21.1794 58.9746 21.2554 58.5714 21.6428C57.5202 22.6455 56.1321 23.2722 54.5144 23.633C52.7946 24.0167 51.0493 24.0319 49.2785 23.8685C47.0994 23.6672 45.0581 23.1735 43.1699 22.3417C42.8739 22.2087 42.583 21.958 42.2921 21.958M41.5573 7.16396C42.5422 7.63874 42.1543 7.64634 43.1546 7.16776C44.3334 6.60183 45.1499 5.84978 45.3439 4.77489C45.5429 3.65821 45.0581 2.69726 44.1548 1.83886C43.721 1.42865 43.1954 1.06783 42.7055 0.691802C42.5167 0.54747 42.3176 0.536076 42.088 0.669014C40.7356 1.45145 39.7609 2.41619 39.4088 3.68859C39.3935 3.74177 39.3833 3.79874 39.3782 3.85191C39.3629 4.03043 39.3527 4.21274 39.3425 4.32669C39.3731 5.63328 40.2151 6.52206 41.5573 7.16396Z" fill="white"/>
<path d="M15.7333 23.0317C15.5138 23.0924 15.2995 23.1684 15.075 23.2064C13.4573 23.4912 12.0436 24.0572 10.824 24.8966C10.7321 24.9611 10.6556 25.0409 10.5688 25.1131C9.93602 25.6296 9.9003 25.6372 10.6556 26.1728C12.0232 27.1375 13.7073 27.6617 15.5343 27.939C16.9325 28.1517 18.3512 28.1896 19.7699 28.0985C22.1889 27.9466 24.4802 27.4604 26.6185 26.5982C26.695 26.5678 26.7614 26.526 26.8532 26.4766C26.2459 26.1918 25.6489 25.9335 25.0824 25.641C22.837 24.4788 20.9794 23.0355 19.6883 21.2313C18.1165 19.0321 18.1012 16.7684 19.3464 14.4743C20.3976 12.5334 22.2756 11.1584 24.6435 10.1139C24.7609 10.0607 24.8783 10.0038 24.9803 9.95819C24.4496 9.58976 23.9087 9.26691 23.4494 8.88708C21.5969 7.3564 21.3775 4.91415 22.8625 3.17836C23.8729 1.99712 25.261 1.13112 26.8583 0.436046C27.0216 0.36388 27.3176 0.341096 27.4707 0.405666C29.3283 1.1767 30.9358 2.14904 31.9003 3.60376C33.1098 5.42691 32.6403 7.66027 30.7419 9.10739C30.3642 9.39225 29.9254 9.63533 29.4865 9.9164C29.8641 10.0683 30.2418 10.2051 30.599 10.3608C33.2118 11.5041 35.1409 13.0727 35.9472 15.2947C36.7637 17.5356 36.085 19.5259 34.0437 21.2731C33.2221 21.9758 32.2371 22.5265 31.2012 23.0393C30.992 23.1418 30.8133 23.1608 30.5939 23.081C28.1903 22.234 26.6644 20.8781 26.2255 18.8992C25.8836 17.3533 26.3429 15.8872 27.0574 14.4477C27.1033 14.3565 27.2003 14.2844 27.2768 14.2008C27.3074 14.2046 27.3431 14.2122 27.3738 14.216C27.3891 14.2806 27.4146 14.3451 27.4146 14.4135C27.3636 15.7087 27.4911 16.9849 28.0168 18.2269C28.4148 19.1689 29.0323 20.0083 30.1193 20.6198C30.3081 20.7261 30.4306 20.7337 30.6143 20.616C32.329 19.4955 33.4313 18.1661 33.1965 16.3924C33.0843 15.534 32.6556 14.7553 32.0177 14.0413C30.8899 12.7803 29.3538 11.8573 27.6136 11.1128C27.4911 11.0597 27.2564 11.0673 27.1288 11.1204C25.3937 11.8611 23.8831 12.7879 22.8013 14.0603C22.0868 14.8997 21.6479 15.8188 21.4948 16.8064C21.1733 18.903 21.9694 20.8135 23.3014 22.6252C24.2557 23.9242 25.4549 25.0827 26.9604 26.0626C27.0574 26.1234 27.1543 26.1804 27.2462 26.2336C27.8382 25.8309 28.3893 25.4245 28.9864 25.0599C31.2369 23.6964 33.7834 22.819 36.6872 22.5683C40.4023 22.2454 43.6735 23.0279 46.516 24.8206C46.8987 25.0637 47.2406 25.341 47.603 25.5993C47.7816 25.7246 47.7969 25.8309 47.6387 25.9943C46.4394 27.2401 44.8217 28.0567 42.9131 28.5847C41.3056 29.029 39.6368 29.2076 37.9374 29.1696C34.5336 29.0974 31.3083 28.4973 28.3638 27.1831C28.0014 27.0198 27.6493 26.7083 27.2921 26.7083C26.9349 26.7083 26.5828 27.016 26.2204 27.1793C23.9138 28.1972 21.4234 28.8012 18.7595 29.0442C16.6008 29.2417 14.4677 29.2265 12.3652 28.7556C10.3902 28.315 8.69084 27.5515 7.40482 26.3247C6.90981 25.8537 6.88939 25.7588 7.32317 25.265C7.91514 24.5889 8.72146 24.0838 9.68597 23.7305C11.5486 23.0469 13.544 22.8645 15.5955 22.9139C15.6261 22.9139 15.6618 22.9367 15.6925 22.9481C15.7078 22.9747 15.7231 23.0013 15.7333 23.0317ZM27.5473 26.4121C27.6646 26.4653 27.7259 26.4956 27.7922 26.526C29.5579 27.2819 31.4614 27.7339 33.4619 27.9731C35.8604 28.258 38.2385 28.201 40.5758 27.6693C41.872 27.373 43.0713 26.94 44.046 26.2146C44.4236 25.9335 44.4237 25.9069 44.0511 25.641C42.1833 24.3193 39.9277 23.6584 37.3812 23.571C34.9418 23.4874 32.6505 23.9356 30.5071 24.794C29.4406 25.227 28.4505 25.7398 27.5473 26.4121ZM30.9154 5.18003C30.9052 5.04329 30.8899 4.82299 30.8746 4.60269C30.8695 4.53433 30.8542 4.46976 30.8338 4.40139C30.4 2.84792 29.2109 1.67047 27.5575 0.713321C27.2768 0.549997 27.0318 0.565185 26.8022 0.743701C26.2051 1.20329 25.5621 1.64388 25.0314 2.14525C23.9291 3.18976 23.332 4.3672 23.577 5.73077C23.8117 7.04115 24.8119 7.96032 26.251 8.6516C27.4707 9.23652 26.9961 9.22513 28.2005 8.6478C29.8437 7.85777 30.8746 6.77528 30.9154 5.18003Z" fill="white"/>
</svg>
