<svg width="59" height="32" viewBox="0 0 59 32" fill="none" xmlns="http://www.w3.org/2000/svg">
<path d="M16.5985 24.1241C16.3077 24.1241 16.0219 24.3989 15.7208 24.5383C13.8326 25.4366 11.7913 25.9739 9.61222 26.1871C7.8465 26.3635 6.09609 26.3471 4.3763 25.9328C2.75858 25.5432 1.37051 24.8665 0.319243 23.7837C-0.0839118 23.3653 -0.104327 23.2833 0.252899 22.8444C0.737706 22.2456 1.39603 21.7986 2.18703 21.4869C3.71289 20.8798 5.34592 20.7199 7.02488 20.765C7.0504 20.765 7.07591 20.7855 7.10653 20.7978C7.11674 20.8224 7.12694 20.847 7.13715 20.8716C6.95854 20.9249 6.77993 20.9906 6.59621 21.0275C5.26937 21.2818 4.11093 21.7781 3.1158 22.5204C3.03925 22.5778 2.97801 22.6476 2.90657 22.7091C2.38604 23.1684 2.36053 23.1725 2.97802 23.6442C4.09563 24.4973 5.47349 24.9608 6.97384 25.2069C8.12207 25.3955 9.28051 25.4284 10.444 25.3504C12.4241 25.2151 14.3021 24.7844 16.0525 24.0216C16.1137 23.9928 16.1699 23.9559 16.2413 23.9149C15.7463 23.6647 15.2564 23.435 14.792 23.1767C12.9497 22.1472 11.4341 20.8757 10.3777 19.2803C9.09169 17.3362 9.08149 15.3346 10.097 13.3085C10.9595 11.5941 12.4956 10.3801 14.4348 9.45313C14.5317 9.40801 14.6236 9.35878 14.7103 9.31367C14.2766 8.98965 13.8326 8.70255 13.455 8.36623C11.9393 7.01274 11.7607 4.85126 12.9752 3.31731C13.802 2.27143 14.94 1.50856 16.2464 0.893338C16.3791 0.831816 16.6241 0.811318 16.7465 0.864637C18.2673 1.54548 19.5839 2.40678 20.3749 3.69055C21.365 5.30243 20.9771 7.27524 19.4257 8.5549C19.1195 8.80919 18.7572 9.02247 18.4 9.26855C18.7113 9.3998 19.0175 9.52284 19.3135 9.66229C21.4517 10.6754 23.0286 12.0576 23.692 14.0222C24.3606 16.0032 23.8043 17.7627 22.1356 19.309C21.4619 19.9283 20.6556 20.4164 19.8085 20.8675C19.6401 20.9578 19.4921 20.9742 19.3084 20.9044C17.3436 20.1539 16.0882 18.9562 15.731 17.2049C15.4503 15.8391 15.828 14.5389 16.4097 13.2675C16.4454 13.1896 16.5271 13.1198 16.5883 13.0501C16.6138 13.0542 16.6445 13.0583 16.67 13.0624C16.6802 13.1198 16.7057 13.1773 16.7006 13.2347C16.6598 14.379 16.7618 15.511 17.1905 16.6061C17.5171 17.4387 18.0223 18.1811 18.9103 18.7224C19.0634 18.8168 19.1655 18.825 19.3135 18.7184C20.7169 17.7299 21.5385 16.5528 21.3496 14.986C21.2578 14.2272 20.9873 13.5382 20.4617 12.9066C19.538 11.791 18.2826 10.9789 16.8537 10.3185C16.7516 10.2734 16.5577 10.2775 16.4557 10.3267C15.037 10.983 13.7969 11.7992 12.9089 12.923C12.322 13.6653 11.9648 14.4774 11.8423 15.351C11.5821 17.2049 12.2302 18.8947 13.3223 20.4943C14.1031 21.6427 15.088 22.6681 16.3179 23.5335C16.3944 23.5868 16.4761 23.636 16.5526 23.6852M19.5686 5.09326C19.5584 4.97021 19.5482 4.77744 19.5329 4.58057C19.5278 4.52315 19.5176 4.46162 19.5023 4.4042C19.1502 3.03021 18.1754 1.98844 16.8231 1.14353C16.5934 0.999983 16.3944 1.01229 16.2056 1.16814C15.7157 1.57419 15.19 1.96382 14.7563 2.40678C13.853 3.32961 13.3631 4.37139 13.5672 5.57723C13.7611 6.73795 14.5777 7.55003 15.7565 8.16115C16.7567 8.67794 16.3638 8.66974 17.3538 8.15706C18.6909 7.45981 19.5329 6.50416 19.5686 5.09326Z" fill="white"/>
<path d="M42.3431 23.7139C42.4146 23.6688 42.4963 23.6195 42.5779 23.5621C43.8078 22.6967 44.7927 21.6713 45.5735 20.5229C46.6656 18.9193 47.3137 17.2335 47.0534 15.3797C46.931 14.5061 46.5686 13.694 45.9869 12.9516C45.0989 11.8278 43.8639 11.0075 42.4401 10.3554C42.338 10.3062 42.1441 10.3021 42.0421 10.3472C40.6132 11.0075 39.3578 11.8196 38.4341 12.9352C37.9085 13.5668 37.5614 14.2559 37.4696 15.0147C37.2808 16.5814 38.1789 17.7585 39.5823 18.747C39.7303 18.8536 39.8324 18.8454 39.9855 18.7511C40.8734 18.2097 41.3786 17.4673 41.7052 16.6347C42.139 15.5355 42.2411 14.4076 42.1952 13.2633C42.1952 13.2059 42.2156 13.1485 42.2258 13.0911C42.2513 13.087 42.2819 13.0829 42.3074 13.0788C42.3687 13.1526 42.4503 13.2182 42.486 13.2961C43.0729 14.5676 43.4455 15.8678 43.1648 17.2336C42.8076 18.9849 41.5573 20.1825 39.5874 20.9331C39.4037 21.0028 39.2608 20.9864 39.0873 20.8962C38.2402 20.445 37.4339 19.9569 36.7602 19.3376C35.0915 17.7954 34.5352 16.0359 35.2037 14.0508C35.8672 12.0862 37.4441 10.6999 39.5823 9.69094C39.8783 9.55149 40.1845 9.43255 40.4958 9.2972C40.1335 9.04701 39.7762 8.83372 39.47 8.58353C37.9187 7.30387 37.5359 5.33107 38.5208 3.71919C39.3118 2.43133 40.6285 1.57411 42.1492 0.893268C42.2717 0.835848 42.5167 0.860459 42.6493 0.921982C43.9558 1.5372 45.0938 2.30418 45.9205 3.34595C47.1351 4.87991 46.9565 7.04138 45.4408 8.39487C45.0632 8.73119 44.6192 9.01829 44.1854 9.34231C44.2722 9.38332 44.364 9.43664 44.461 9.48176C46.4053 10.4046 47.9363 11.6186 48.7987 13.3372C49.8143 15.3674 49.8041 17.3648 48.5181 19.3089C47.4617 20.9044 45.9409 22.1799 44.1038 23.2053C43.6394 23.4637 43.1495 23.6934 42.6545 23.9436C42.7259 23.9846 42.782 24.0215 42.8433 24.0502C44.5937 24.8131 46.4717 25.2437 48.4517 25.3791C49.6153 25.457 50.7737 25.4242 51.9219 25.2355C53.4172 24.9894 54.795 24.5301 55.9177 23.6729C56.5352 23.2012 56.5097 23.193 55.9892 22.7377C55.9178 22.6762 55.8565 22.6065 55.78 22.5491C54.7848 21.8067 53.6264 21.3063 52.2996 21.052C52.1158 21.0151 51.9372 20.9495 51.7586 20.8962C51.7688 20.8716 51.779 20.847 51.7892 20.8223C51.8147 20.81 51.8403 20.7895 51.8658 20.7895C53.5447 20.7444 55.1778 20.9044 56.7036 21.5114C57.4946 21.8231 58.153 22.2743 58.6378 22.869C58.995 23.3078 58.9746 23.3899 58.5714 23.8082C57.5202 24.891 56.1321 25.5677 54.5144 25.9574C52.7946 26.3716 51.0493 26.388 49.2785 26.2117C47.0994 25.9943 45.0581 25.4611 43.1699 24.5629C42.8739 24.4193 42.583 24.1486 42.2921 24.1486M41.5573 8.17339C42.5422 8.68607 42.1543 8.69428 43.1546 8.17749C44.3334 7.56637 45.1499 6.75428 45.3439 5.59357C45.5429 4.38773 45.0581 3.35006 44.1548 2.42312C43.721 1.98016 43.1954 1.59053 42.7055 1.18448C42.5167 1.02863 42.3176 1.01632 42.088 1.15987C40.7356 2.00478 39.7609 3.04654 39.4088 4.42054C39.3935 4.47796 39.3833 4.53948 39.3782 4.5969C39.3629 4.78967 39.3527 4.98654 39.3425 5.10958C39.3731 6.52049 40.2151 7.48024 41.5573 8.17339Z" fill="white"/>
<path d="M15.7323 25.3075C15.5129 25.3731 15.2985 25.4551 15.074 25.4962C13.4563 25.8038 12.0427 26.4149 10.823 27.3213C10.7311 27.391 10.6546 27.4772 10.5678 27.5551C9.93504 28.1129 9.89932 28.1211 10.6546 28.6994C12.0223 29.7412 13.7063 30.3072 15.5333 30.6066C16.9316 30.8363 18.3503 30.8773 19.769 30.7789C22.1879 30.6148 24.4792 30.0898 26.6175 29.1588C26.6941 29.126 26.7604 29.0808 26.8522 29.0275C26.245 28.7199 25.6479 28.441 25.0814 28.1252C22.836 26.8702 20.9784 25.3116 19.6873 23.3634C18.1155 20.9886 18.1002 18.5442 19.3454 16.0669C20.3967 13.971 22.2747 12.4863 24.6426 11.3584C24.7599 11.301 24.8773 11.2394 24.9794 11.1902C24.4486 10.7924 23.9077 10.4437 23.4484 10.0336C21.5959 8.3807 21.3765 5.74345 22.8615 3.86908C23.872 2.59352 25.26 1.65838 26.8574 0.907814C27.0207 0.829886 27.3166 0.805283 27.4697 0.875008C29.3273 1.70761 30.9348 2.75758 31.8993 4.32844C33.1088 6.29715 32.6393 8.70883 30.7409 10.2715C30.3633 10.5791 29.9244 10.8416 29.4855 11.1451C29.8632 11.3092 30.2408 11.4568 30.598 11.625C33.2109 12.8595 35.1399 14.5534 35.9462 16.9528C36.7627 19.3727 36.084 21.5218 34.0427 23.4085C33.2211 24.1673 32.2362 24.762 31.2002 25.3157C30.991 25.4264 30.8124 25.4469 30.5929 25.3608C28.1893 24.4462 26.6634 22.982 26.2246 20.8451C25.8826 19.1758 26.3419 17.5926 27.0564 16.0382C27.1023 15.9397 27.1993 15.8618 27.2758 15.7716C27.3064 15.7757 27.3422 15.7839 27.3728 15.788C27.3881 15.8577 27.4136 15.9274 27.4136 16.0012C27.3626 17.3999 27.4902 18.7779 28.0158 20.1191C28.4138 21.1363 29.0313 22.0427 30.1183 22.7031C30.3071 22.8179 30.4296 22.8261 30.6133 22.699C32.328 21.489 33.4303 20.0535 33.1956 18.1381C33.0833 17.2112 32.6546 16.3704 32.0167 15.5993C30.8889 14.2376 29.3528 13.241 27.6126 12.4371C27.4902 12.3796 27.2554 12.3878 27.1278 12.4453C25.3927 13.2451 23.8822 14.2458 22.8003 15.6198C22.0858 16.5262 21.647 17.5188 21.4939 18.5852C21.1724 20.8492 21.9685 22.9122 23.3004 24.8686C24.2547 26.2713 25.454 27.5223 26.9594 28.5805C27.0564 28.6461 27.1533 28.7076 27.2452 28.765C27.8372 28.3303 28.3883 27.8914 28.9854 27.4977C31.2359 26.0253 33.7824 25.0778 36.6862 24.8071C40.4013 24.4585 43.6725 25.3034 46.515 27.2393C46.8977 27.5018 47.2397 27.8012 47.602 28.0801C47.7806 28.2154 47.7959 28.3303 47.6377 28.5066C46.4384 29.8519 44.8207 30.7337 42.9121 31.3039C41.3046 31.7837 39.6358 31.9765 37.9365 31.9355C34.5326 31.8575 31.3074 31.2095 28.3628 29.7904C28.0005 29.614 27.6484 29.2777 27.2911 29.2777C26.9339 29.2777 26.5818 29.6099 26.2195 29.7863C23.9128 30.8855 21.4224 31.5376 18.7585 31.8001C16.5999 32.0134 14.4667 31.997 12.3642 31.4884C10.3892 31.0126 8.68986 30.1882 7.40385 28.8635C6.90883 28.3549 6.88842 28.2523 7.32219 27.7192C7.91417 26.9891 8.72048 26.4436 9.68499 26.0622C11.5477 25.3239 13.543 25.127 15.5945 25.1803C15.6251 25.1803 15.6609 25.205 15.6915 25.2173C15.7068 25.246 15.7221 25.2747 15.7323 25.3075ZM27.5463 28.9578C27.6637 29.0152 27.7249 29.048 27.7912 29.0808C29.557 29.897 31.4605 30.3851 33.4609 30.6435C35.8595 30.9511 38.2376 30.8896 40.5748 30.3154C41.8711 29.9955 43.0703 29.5279 44.045 28.7445C44.4227 28.441 44.4227 28.4123 44.0501 28.1252C42.1824 26.6979 39.9267 25.9842 37.3802 25.8899C34.9409 25.7997 32.6495 26.2836 30.5062 27.2106C29.4396 27.6781 28.4496 28.2318 27.5463 28.9578ZM30.9144 6.03056C30.9042 5.88291 30.8889 5.64502 30.8736 5.40713C30.8685 5.33331 30.8532 5.26358 30.8328 5.18975C30.399 3.51225 29.2099 2.2408 27.5565 1.20723C27.2758 1.03086 27.0309 1.04726 26.8012 1.24003C26.2041 1.73631 25.5611 2.21208 25.0304 2.75348C23.9281 3.88138 23.331 5.15284 23.576 6.62527C23.8107 8.04028 24.811 9.03284 26.2501 9.77931C27.4697 10.4109 26.9951 10.3986 28.1995 9.7752C29.8427 8.92209 30.8736 7.75318 30.9144 6.03056Z" fill="white"/>
</svg>
