<svg width="50" height="27" viewBox="0 0 50 27" fill="none" xmlns="http://www.w3.org/2000/svg">
<path d="M14.0924 19.8848C13.8454 19.8848 13.6028 20.1088 13.3472 20.2224C11.7441 20.9545 10.011 21.3924 8.16091 21.5663C6.66179 21.71 5.17566 21.6966 3.71554 21.359C2.34207 21.0414 1.16358 20.4898 0.271042 19.6073C-0.0712423 19.2664 -0.0885752 19.1995 0.214715 18.8418C0.626322 18.3538 1.18525 17.9894 1.85682 17.7353C3.1523 17.2406 4.53876 17.1102 5.96422 17.147C5.98588 17.147 6.00755 17.1637 6.03354 17.1737C6.04221 17.1938 6.05087 17.2138 6.05954 17.2339C5.90789 17.2774 5.75625 17.3308 5.60027 17.3609C4.47377 17.5682 3.49024 17.9727 2.64536 18.5777C2.58037 18.6245 2.52837 18.6814 2.46772 18.7315C2.02578 19.1059 2.00412 19.1092 2.52838 19.4937C3.47725 20.189 4.64707 20.5667 5.92089 20.7673C6.89575 20.9211 7.87928 20.9478 8.86714 20.8843C10.5482 20.774 12.1427 20.423 13.6288 19.8012C13.6808 19.7778 13.7284 19.7477 13.7891 19.7143C13.3688 19.5104 12.9529 19.3232 12.5586 19.1126C10.9945 18.2735 9.70769 17.2372 8.81081 15.9369C7.71897 14.3523 7.71031 12.721 8.57252 11.0696C9.30475 9.6723 10.6089 8.68281 12.2553 7.92732C12.3376 7.89055 12.4156 7.85042 12.4893 7.81365C12.121 7.54956 11.7441 7.31556 11.4234 7.04145C10.1366 5.9383 9.98498 4.1766 11.0162 2.92636C11.7181 2.07393 12.6843 1.45215 13.7934 0.950719C13.9061 0.900576 14.1141 0.883869 14.218 0.927327C15.5092 1.48224 16.627 2.18424 17.2986 3.23057C18.1391 4.54432 17.8099 6.15225 16.4927 7.19523C16.2328 7.40248 15.9251 7.57631 15.6218 7.77688C15.8861 7.88386 16.1461 7.98414 16.3974 8.0978C18.2128 8.92349 19.5516 10.05 20.1149 11.6513C20.6824 13.2659 20.2102 14.7 18.7934 15.9603C18.2215 16.465 17.5369 16.8628 16.8177 17.2305C16.6747 17.3041 16.549 17.3175 16.3931 17.2606C14.725 16.6489 13.6591 15.6728 13.3558 14.2454C13.1175 13.1322 13.4382 12.0725 13.9321 11.0362C13.9624 10.9727 14.0317 10.9158 14.0837 10.859C14.1054 10.8624 14.1314 10.8657 14.153 10.869C14.1617 10.9158 14.1834 10.9627 14.179 11.0095C14.1444 11.9421 14.231 12.8647 14.595 13.7573C14.8723 14.4359 15.3012 15.041 16.0551 15.4822C16.1851 15.5591 16.2717 15.5658 16.3974 15.4789C17.5889 14.6732 18.2865 13.7138 18.1261 12.4369C18.0482 11.8184 17.8185 11.2568 17.3723 10.742C16.588 9.83275 15.5222 9.17086 14.309 8.63266C14.2224 8.59589 14.0577 8.59923 13.9711 8.63934C12.7666 9.1742 11.7137 9.83944 10.9598 10.7554C10.4616 11.3605 10.1583 12.0223 10.0543 12.7344C9.83333 14.2454 10.3836 15.6226 11.3108 16.9263C11.9737 17.8624 12.8099 18.6981 13.8541 19.4034C13.9191 19.4469 13.9884 19.487 14.0534 19.5271M16.614 4.37384C16.6054 4.27355 16.5967 4.11643 16.5837 3.95598C16.5794 3.90917 16.5707 3.85902 16.5577 3.81222C16.2587 2.69236 15.4312 1.84327 14.283 1.15464C14.0881 1.03764 13.9191 1.04767 13.7588 1.1747C13.3428 1.50564 12.8966 1.82321 12.5283 2.18424C11.7614 2.93639 11.3455 3.78549 11.5188 4.76829C11.6834 5.71433 12.3766 6.37621 13.3775 6.8743C14.2267 7.29551 13.8931 7.28883 14.7336 6.87097C15.8688 6.30268 16.5837 5.52379 16.614 4.37384Z" fill="white"/>
<path d="M35.9501 19.5505C36.0107 19.5138 36.0801 19.4737 36.1494 19.4269C37.1936 18.7215 38.0298 17.8858 38.6927 16.9498C39.6199 15.6427 40.1702 14.2688 39.9492 12.7578C39.8452 12.0458 39.5376 11.3839 39.0436 10.7788C38.2898 9.86287 37.2412 9.19429 36.0324 8.66277C35.9458 8.62266 35.7811 8.61932 35.6945 8.65609C34.4813 9.19429 33.4155 9.85618 32.6312 10.7654C32.185 11.2803 31.8903 11.8419 31.8124 12.4603C31.652 13.7373 32.4146 14.6967 33.6061 15.5023C33.7317 15.5892 33.8184 15.5825 33.9484 15.5056C34.7023 15.0644 35.1312 14.4593 35.4085 13.7807C35.7768 12.8848 35.8634 11.9655 35.8244 11.0329C35.8244 10.9861 35.8418 10.9393 35.8504 10.8925C35.8721 10.8891 35.8981 10.8858 35.9198 10.8825C35.9718 10.9426 36.0411 10.9961 36.0714 11.0596C36.5697 12.0959 36.886 13.1556 36.6477 14.2688C36.3444 15.6962 35.2829 16.6723 33.6104 17.2841C33.4544 17.3409 33.3331 17.3275 33.1858 17.254C32.4666 16.8863 31.782 16.4885 31.2101 15.9837C29.7933 14.7268 29.321 13.2927 29.8886 11.6747C30.4519 10.0735 31.7907 8.94358 33.6061 8.12123C33.8574 8.00757 34.1174 7.91063 34.3816 7.80031C34.074 7.5964 33.7707 7.42256 33.5108 7.21865C32.1936 6.17567 31.8687 4.56775 32.7049 3.254C33.3765 2.20433 34.4943 1.50567 35.7855 0.950747C35.8894 0.903947 36.0974 0.924006 36.2101 0.97415C37.3192 1.47558 38.2854 2.1007 38.9873 2.94979C40.0185 4.20003 39.8669 5.96173 38.58 7.06488C38.2594 7.33899 37.8825 7.57299 37.5142 7.83708C37.5879 7.87051 37.6659 7.91397 37.7482 7.95074C39.3989 8.70289 40.6987 9.69239 41.431 11.0931C42.2932 12.7478 42.2845 14.3758 41.1927 15.9603C40.2958 17.2607 39.0047 18.3003 37.4449 19.136C37.0506 19.3466 36.6347 19.5338 36.2144 19.7377C36.275 19.7712 36.3227 19.8013 36.3747 19.8247C37.8608 20.4464 39.4553 20.7974 41.1363 20.9077C42.1242 20.9713 43.1077 20.9445 44.0826 20.7907C45.3521 20.5902 46.5219 20.2158 47.4751 19.5171C47.9994 19.1327 47.9777 19.126 47.5358 18.7549C47.4751 18.7048 47.4231 18.648 47.3581 18.6012C46.5132 17.9961 45.5297 17.5883 44.4032 17.381C44.2472 17.3509 44.0956 17.2974 43.9439 17.254C43.9526 17.2339 43.9613 17.2139 43.9699 17.1938C43.9916 17.1838 44.0133 17.1671 44.0349 17.1671C45.4604 17.1303 46.8469 17.2607 48.1423 17.7554C48.8139 18.0095 49.3728 18.3772 49.7844 18.8619C50.0877 19.2196 50.0704 19.2865 49.7281 19.6274C48.8356 20.5099 47.6571 21.0615 46.2836 21.3791C44.8235 21.7167 43.3417 21.7301 41.8383 21.5863C39.9882 21.4092 38.2551 20.9746 36.652 20.2425C36.4007 20.1255 36.1537 19.9049 35.9068 19.9049M35.2829 6.88436C36.1191 7.30222 35.7898 7.30891 36.639 6.88771C37.6399 6.38962 38.3331 5.72773 38.4977 4.78169C38.6667 3.79889 38.2551 2.95314 37.4882 2.19764C37.1199 1.83661 36.6737 1.51904 36.2577 1.1881C36.0974 1.06107 35.9284 1.05104 35.7335 1.16804C34.5853 1.85668 33.7577 2.70576 33.4588 3.82563C33.4458 3.87243 33.4371 3.92257 33.4328 3.96937C33.4198 4.12648 33.4111 4.28694 33.4025 4.38723C33.4285 5.53718 34.1434 6.31941 35.2829 6.88436Z" fill="white"/>
<path d="M13.3573 20.8493C13.171 20.9028 12.989 20.9697 12.7984 21.0031C11.4249 21.2538 10.2248 21.7519 9.18925 22.4907C9.11126 22.5475 9.04627 22.6177 8.97261 22.6812C8.43536 23.1358 8.40504 23.1425 9.04628 23.6139C10.2074 24.463 11.6372 24.9243 13.1883 25.1683C14.3755 25.3555 15.58 25.389 16.7845 25.3087C18.8382 25.175 20.7836 24.7471 22.599 23.9883C22.664 23.9615 22.7203 23.9248 22.7983 23.8813C22.2827 23.6306 21.7758 23.4033 21.2948 23.1459C19.3885 22.123 17.8113 20.8527 16.7152 19.2648C15.3807 17.3293 15.3677 15.3369 16.4249 13.3178C17.3174 11.6096 18.9119 10.3995 20.9222 9.48018C21.0219 9.43338 21.1215 9.38324 21.2082 9.34312C20.7576 9.01886 20.2983 8.73471 19.9084 8.40043C18.3356 7.05325 18.1493 4.90377 19.4101 3.37608C20.268 2.33644 21.4465 1.57427 22.8026 0.962518C22.9413 0.899003 23.1926 0.87895 23.3226 0.935779C24.8997 1.61438 26.2645 2.47016 27.0834 3.75048C28.1102 5.35506 27.7116 7.32068 26.0998 8.59432C25.7792 8.84504 25.4066 9.05897 25.034 9.30634C25.3546 9.44006 25.6752 9.56041 25.9785 9.69747C28.1969 10.7037 29.8346 12.0843 30.5192 14.0399C31.2124 16.0122 30.6362 17.7638 28.9031 19.3016C28.2055 19.92 27.3693 20.4047 26.4898 20.856C26.3121 20.9463 26.1605 20.963 25.9742 20.8928C23.9335 20.1473 22.638 18.9539 22.2654 17.2123C21.9751 15.8517 22.365 14.5614 22.9716 13.2944C23.0106 13.2142 23.0929 13.1507 23.1579 13.0771C23.1839 13.0805 23.2143 13.0871 23.2402 13.0905C23.2532 13.1473 23.2749 13.2042 23.2749 13.2643C23.2316 14.4042 23.3399 15.5274 23.7862 16.6206C24.1241 17.4496 24.6484 18.1884 25.5712 18.7266C25.7315 18.8202 25.8355 18.8269 25.9915 18.7232C27.4473 17.7371 28.3832 16.5671 28.1839 15.006C28.0885 14.2505 27.7246 13.5652 27.183 12.9367C26.2255 11.8269 24.9213 11.0146 23.4439 10.3594C23.3399 10.3126 23.1406 10.3192 23.0323 10.366C21.5591 11.0179 20.2767 11.8336 19.3581 12.9534C18.7515 13.6922 18.3789 14.5012 18.249 15.3703C17.976 17.2156 18.6519 18.8971 19.7827 20.4916C20.593 21.6349 21.6111 22.6545 22.8893 23.5169C22.9716 23.5704 23.0539 23.6206 23.1319 23.6674C23.6345 23.313 24.1024 22.9553 24.6094 22.6344C26.5201 21.4343 28.6821 20.6621 31.1474 20.4415C34.3017 20.1573 37.0789 20.846 39.4922 22.4238C39.8172 22.6378 40.1075 22.8818 40.4151 23.1091C40.5668 23.2194 40.5798 23.313 40.4454 23.4568C39.4273 24.5532 38.0538 25.2719 36.4333 25.7366C35.0685 26.1277 33.6517 26.2848 32.209 26.2514C29.319 26.1879 26.5808 25.6597 24.0808 24.5031C23.7732 24.3593 23.4742 24.0852 23.1709 24.0852C22.8676 24.0852 22.5687 24.356 22.261 24.4997C20.3027 25.3956 18.1883 25.9272 15.9266 26.1411C14.0939 26.3149 12.2828 26.3015 10.4977 25.887C8.82098 25.4993 7.37818 24.8273 6.28634 23.7476C5.86607 23.3331 5.84874 23.2495 6.21702 22.8149C6.71961 22.2199 7.40418 21.7753 8.22306 21.4644C9.8045 20.8627 11.4986 20.7022 13.2403 20.7457C13.2663 20.7457 13.2967 20.7657 13.3227 20.7758C13.3357 20.7992 13.3487 20.8226 13.3573 20.8493ZM23.3876 23.8245C23.4872 23.8713 23.5392 23.898 23.5955 23.9248C25.0946 24.59 26.7107 24.9878 28.4092 25.1984C30.4455 25.4491 32.4646 25.399 34.449 24.931C35.5495 24.6702 36.5677 24.2891 37.3952 23.6506C37.7158 23.4033 37.7158 23.3799 37.3995 23.1459C35.8138 21.9826 33.8987 21.4009 31.7367 21.324C29.6657 21.2505 27.7203 21.6449 25.9005 22.4004C24.995 22.7815 24.1544 23.2328 23.3876 23.8245ZM26.2471 5.13778C26.2385 5.01744 26.2255 4.82354 26.2125 4.62966C26.2081 4.56949 26.1952 4.51266 26.1778 4.45249C25.8095 3.08525 24.8 2.04896 23.3962 1.20655C23.1579 1.06281 22.9499 1.07618 22.755 1.23329C22.248 1.63778 21.7021 2.02555 21.2515 2.46681C20.3157 3.38611 19.8087 4.4224 20.0167 5.62249C20.216 6.77579 21.0652 7.58477 22.287 8.19317C23.3226 8.70797 22.9196 8.69794 23.9421 8.18982C25.3373 7.4945 26.2125 6.54179 26.2471 5.13778Z" fill="white"/>
</svg>
