<svg width="59" height="47" viewBox="0 0 59 47" fill="none" xmlns="http://www.w3.org/2000/svg">
<path d="M16.5985 34.7442C16.3077 34.7442 16.0219 35.1441 15.7208 35.347C13.8326 36.6538 11.7913 37.4356 9.61222 37.7459C7.8465 38.0025 6.09609 37.9786 4.3763 37.3759C2.75858 36.809 1.37051 35.8243 0.319243 34.2489C-0.0839118 33.6402 -0.104327 33.5209 0.252899 32.8824C0.737706 32.0111 1.39603 31.3607 2.18703 30.9071C3.71289 30.0239 5.34592 29.7912 7.02488 29.8568C7.0504 29.8568 7.07591 29.8867 7.10653 29.9046C7.11674 29.9404 7.12694 29.9762 7.13715 30.012C6.95854 30.0896 6.77993 30.1851 6.59621 30.2388C5.26937 30.6088 4.11093 31.3308 3.1158 32.4109C3.03925 32.4945 2.97801 32.5959 2.90657 32.6854C2.38604 33.3538 2.36053 33.3598 2.97802 34.046C4.09563 35.2873 5.47349 35.9616 6.97384 36.3196C8.12207 36.5941 9.28051 36.6419 10.444 36.5285C12.4241 36.3316 14.3021 35.705 16.0525 34.595C16.1137 34.5533 16.1699 34.4996 16.2413 34.4399C15.7463 34.0759 15.2564 33.7417 14.792 33.3657C12.9497 31.8679 11.4341 30.018 10.3777 27.6966C9.09169 24.868 9.08149 21.9559 10.097 19.0079C10.9595 16.5135 12.4956 14.7471 14.4348 13.3985C14.5317 13.3328 14.6236 13.2612 14.7103 13.1956C14.2766 12.7241 13.8326 12.3064 13.455 11.8171C11.9393 9.84779 11.7607 6.70291 12.9752 4.47107C13.802 2.94935 14.94 1.83939 16.2464 0.944267C16.3791 0.854755 16.6241 0.824931 16.7465 0.902509C18.2673 1.89311 19.5839 3.14628 20.3749 5.01411C21.365 7.35934 20.9771 10.2297 19.4257 12.0916C19.1195 12.4616 18.7572 12.7719 18.4 13.1299C18.7113 13.3209 19.0175 13.4999 19.3135 13.7028C21.4517 15.1768 23.0286 17.1878 23.692 20.0463C24.3606 22.9286 23.8043 25.4886 22.1356 27.7384C21.4619 28.6395 20.6556 29.3496 19.8085 30.006C19.6401 30.1373 19.4921 30.1612 19.3084 30.0597C17.3436 28.9677 16.0882 27.2252 15.731 24.677C15.4503 22.6899 15.828 20.7982 16.4097 18.9482C16.4454 18.8349 16.5271 18.7334 16.5883 18.632C16.6138 18.6379 16.6445 18.6439 16.67 18.6499C16.6802 18.7334 16.7057 18.817 16.7006 18.9005C16.6598 20.5654 16.7618 22.2125 17.1905 23.8058C17.5171 25.0172 18.0223 26.0973 18.9103 26.885C19.0634 27.0223 19.1655 27.0342 19.3135 26.8791C20.7169 25.4409 21.5385 23.7282 21.3496 21.4486C21.2578 20.3446 20.9873 19.3421 20.4617 18.4231C19.538 16.7999 18.2826 15.6184 16.8537 14.6576C16.7516 14.592 16.5577 14.5979 16.4557 14.6695C15.037 15.6243 13.7969 16.8119 12.9089 18.447C12.322 19.5271 11.9648 20.7086 11.8423 21.9797C11.5821 24.677 12.2302 27.1357 13.3223 29.463C14.1031 31.1339 15.088 32.6258 16.3179 33.8849C16.3944 33.9625 16.4761 34.0341 16.5526 34.1057M19.5686 7.05501C19.5584 6.87598 19.5482 6.59551 19.5329 6.30907C19.5278 6.22552 19.5176 6.136 19.5023 6.05245C19.1502 4.05334 18.1754 2.5376 16.8231 1.30829C16.5934 1.09943 16.3944 1.11733 16.2056 1.3441C15.7157 1.93488 15.19 2.50179 14.7563 3.14628C13.853 4.48897 13.3631 6.00472 13.5672 7.75917C13.7611 9.44797 14.5777 10.6295 15.7565 11.5187C16.7567 12.2706 16.3638 12.2587 17.3538 11.5127C18.6909 10.4983 19.5329 9.10783 19.5686 7.05501Z" fill="white"/>
<path d="M42.3431 34.1469C42.4146 34.0812 42.4963 34.0096 42.5779 33.9261C43.8078 32.6669 44.7927 31.1751 45.5735 29.5042C46.6656 27.1709 47.3137 24.7182 47.0534 22.0209C46.931 20.7498 46.5686 19.5683 45.9869 18.4881C45.0989 16.853 43.8639 15.6595 42.4401 14.7107C42.338 14.6391 42.1441 14.6331 42.0421 14.6988C40.6132 15.6595 39.3578 16.8411 38.4341 18.4643C37.9085 19.3833 37.5614 20.3858 37.4696 21.4898C37.2808 23.7694 38.1789 25.482 39.5823 26.9202C39.7303 27.0754 39.8324 27.0634 39.9855 26.9262C40.8734 26.1385 41.3786 25.0584 41.7052 23.847C42.139 22.2477 42.2411 20.6066 42.1952 18.9417C42.1952 18.8581 42.2156 18.7746 42.2258 18.691C42.2513 18.6851 42.2819 18.6791 42.3074 18.6731C42.3687 18.7806 42.4503 18.876 42.486 18.9894C43.0729 20.8393 43.4455 22.731 43.1648 24.7182C42.8076 27.2663 41.5573 29.0088 39.5874 30.1009C39.4037 30.2023 39.2608 30.1785 39.0873 30.0472C38.2402 29.3908 37.4339 28.6806 36.7602 27.7795C35.0915 25.5358 34.5352 22.9757 35.2037 20.0874C35.8672 17.229 37.4441 15.212 39.5823 13.744C39.8783 13.5411 40.1845 13.368 40.4958 13.1711C40.1335 12.8071 39.7762 12.4968 39.47 12.1327C37.9187 10.2709 37.5359 7.40052 38.5208 5.05529C39.3118 3.18149 40.6285 1.93427 42.1492 0.943667C42.2717 0.860121 42.5167 0.895931 42.6493 0.985443C43.9558 1.88057 45.0938 2.99649 45.9205 4.51224C47.1351 6.74409 46.9565 9.88896 45.4408 11.8582C45.0632 12.3476 44.6192 12.7653 44.1854 13.2367C44.2722 13.2964 44.364 13.374 44.461 13.4396C46.4053 14.7823 47.9363 16.5487 48.7987 19.0491C49.8143 22.003 49.8041 24.9092 48.5181 27.7378C47.4617 30.0591 45.9409 31.915 44.1038 33.4069C43.6394 33.7829 43.1495 34.117 42.6545 34.481C42.7259 34.5407 42.782 34.5944 42.8433 34.6362C44.5937 35.7462 46.4717 36.3727 48.4517 36.5697C49.6153 36.6831 50.7737 36.6353 51.9219 36.3608C53.4172 36.0028 54.795 35.3344 55.9177 34.0872C56.5352 33.4009 56.5097 33.389 55.9892 32.7266C55.9178 32.6371 55.8565 32.5356 55.78 32.4521C54.7848 31.372 53.6264 30.6439 52.2996 30.274C52.1158 30.2203 51.9372 30.1248 51.7586 30.0472C51.7688 30.0114 51.779 29.9756 51.7892 29.9398C51.8147 29.9219 51.8403 29.892 51.8658 29.892C53.5447 29.8264 55.1778 30.0591 56.7036 30.9423C57.4946 31.3959 58.153 32.0523 58.6378 32.9176C58.995 33.5561 58.9746 33.6754 58.5714 34.2841C57.5202 35.8596 56.1321 36.8442 54.5144 37.4111C52.7946 38.0138 51.0493 38.0377 49.2785 37.7811C47.0994 37.4648 45.0581 36.689 43.1699 35.3821C42.8739 35.1733 42.583 34.7794 42.2921 34.7794M41.5573 11.536C42.5422 12.2819 42.1543 12.2939 43.1546 11.542C44.3334 10.6528 45.1499 9.47124 45.3439 7.78244C45.5429 6.02799 45.0581 4.51821 44.1548 3.16955C43.721 2.52506 43.1954 1.95816 42.7055 1.36737C42.5167 1.14061 42.3176 1.12271 42.088 1.33157C40.7356 2.56087 39.7609 4.07661 39.4088 6.07572C39.3935 6.15927 39.3833 6.24878 39.3782 6.33232C39.3629 6.61279 39.3527 6.89924 39.3425 7.07826C39.3731 9.13108 40.2151 10.5275 41.5573 11.536Z" fill="white"/>
<path d="M15.7323 36.466C15.5129 36.5615 15.2985 36.6809 15.074 36.7405C13.4563 37.1881 12.0427 38.0772 10.823 39.3961C10.7311 39.4975 10.6546 39.6228 10.5678 39.7362C9.93504 40.5478 9.89932 40.5597 10.6546 41.4012C12.0223 42.9169 13.7063 43.7404 15.5333 44.176C16.9316 44.5102 18.3503 44.5699 19.769 44.4267C22.1879 44.188 24.4792 43.4241 26.6175 42.0695C26.6941 42.0218 26.7604 41.9561 26.8522 41.8785C26.245 41.431 25.6479 41.0252 25.0814 40.5657C22.836 38.7397 20.9784 36.472 19.6873 33.6374C18.1155 30.1822 18.1002 26.6256 19.3454 23.0212C20.3967 19.9718 22.2747 17.8116 24.6426 16.1705C24.7599 16.087 24.8773 15.9975 24.9794 15.9259C24.4486 15.347 23.9077 14.8398 23.4484 14.243C21.5959 11.8381 21.3765 8.00102 22.8615 5.27387C23.872 3.41797 25.26 2.05738 26.8574 0.96533C27.0207 0.851947 27.3166 0.81615 27.4697 0.917598C29.3273 2.129 30.9348 3.65667 31.8993 5.94223C33.1088 8.80663 32.6393 12.3155 30.7409 14.5892C30.3633 15.0367 29.9244 15.4186 29.4855 15.8602C29.8632 16.0989 30.2408 16.3138 30.598 16.5584C33.2109 18.3546 35.1399 20.8192 35.9462 24.3102C36.7627 27.831 36.084 30.958 34.0427 33.7031C33.2211 34.8071 32.2362 35.6723 31.2002 36.478C30.991 36.6391 30.8124 36.6689 30.5929 36.5436C28.1893 35.2128 26.6634 33.0825 26.2246 29.9734C25.8826 27.5446 26.3419 25.2412 27.0564 22.9795C27.1023 22.8362 27.1993 22.7229 27.2758 22.5916C27.3064 22.5975 27.3422 22.6095 27.3728 22.6154C27.3881 22.7169 27.4136 22.8183 27.4136 22.9258C27.3626 24.9607 27.4902 26.9657 28.0158 28.9171C28.4138 30.3971 29.0313 31.7159 30.1183 32.6767C30.3071 32.8438 30.4296 32.8557 30.6133 32.6707C32.328 30.9103 33.4303 28.8217 33.1956 26.0348C33.0833 24.6862 32.6546 23.4628 32.0167 22.3409C30.8889 20.3597 29.3528 18.9096 27.6126 17.74C27.4902 17.6565 27.2554 17.6684 27.1278 17.7519C25.3927 18.9156 23.8822 20.3717 22.8003 22.3708C22.0858 23.6896 21.647 25.1337 21.4939 26.6853C21.1724 29.9793 21.9685 32.981 23.3004 35.8275C24.2547 37.8684 25.454 39.6885 26.9594 41.2281C27.0564 41.3236 27.1533 41.4131 27.2452 41.4966C27.8372 40.8641 28.3883 40.2256 28.9854 39.6527C31.2359 37.5103 33.7824 36.1319 36.6862 35.738C40.4013 35.2308 43.6725 36.4601 46.515 39.2767C46.8977 39.6586 47.2397 40.0943 47.602 40.5001C47.7806 40.697 47.7959 40.8641 47.6377 41.1207C46.4384 43.078 44.8207 44.361 42.9121 45.1905C41.3046 45.8887 39.6358 46.1692 37.9365 46.1095C34.5326 45.9961 31.3074 45.0533 28.3628 42.9885C28.0005 42.7319 27.6484 42.2426 27.2911 42.2426C26.9339 42.2426 26.5818 42.7259 26.2195 42.9825C23.9128 44.5818 21.4224 45.5307 18.7585 45.9126C16.5999 46.2229 14.4667 46.199 12.3642 45.459C10.3892 44.7668 8.68986 43.5674 7.40385 41.6399C6.90883 40.8999 6.88842 40.7507 7.32219 39.9749C7.91417 38.9127 8.72048 38.119 9.68499 37.5641C11.5477 36.4899 13.543 36.2034 15.5945 36.281C15.6251 36.281 15.6609 36.3168 15.6915 36.3347C15.7068 36.3765 15.7221 36.4183 15.7323 36.466ZM27.5463 41.7771C27.6637 41.8607 27.7249 41.9084 27.7912 41.9561C29.557 43.1437 31.4605 43.8538 33.4609 44.2297C35.8595 44.6773 38.2376 44.5878 40.5748 43.7524C41.8711 43.2869 43.0703 42.6066 44.045 41.4668C44.4227 41.0252 44.4227 40.9834 44.0501 40.5657C42.1824 38.489 39.9267 37.4507 37.3802 37.3134C34.9409 37.1821 32.6495 37.8863 30.5062 39.2349C29.4396 39.9152 28.4496 40.7209 27.5463 41.7771ZM30.9144 8.41876C30.9042 8.20393 30.8889 7.8578 30.8736 7.51168C30.8685 7.40427 30.8532 7.30282 30.8328 7.19541C30.399 4.7547 29.2099 2.90478 27.5565 1.40096C27.2758 1.14436 27.0309 1.16822 26.8012 1.4487C26.2041 2.17076 25.5611 2.863 25.0304 3.65071C23.9281 5.29177 23.331 7.1417 23.576 9.28403C23.8107 11.3428 24.811 12.787 26.2501 13.873C27.4697 14.792 26.9951 14.7741 28.1995 13.8671C29.8427 12.6258 30.8736 10.9251 30.9144 8.41876Z" fill="white"/>
</svg>
