<svg width="59" height="58" viewBox="0 0 59 58" fill="none" xmlns="http://www.w3.org/2000/svg">
<path d="M16.5985 43.4431C16.3077 43.4431 16.0219 43.9494 15.7208 44.2062C13.8326 45.861 11.7913 46.8507 9.61222 47.2436C7.8465 47.5685 6.09609 47.5383 4.3763 46.7752C2.75858 46.0574 1.37051 44.8107 0.319243 42.816C-0.0839118 42.0453 -0.104327 41.8942 0.252899 41.0857C0.737706 39.9826 1.39603 39.159 2.18703 38.5848C3.71289 37.4665 5.34592 37.1718 7.02488 37.255C7.0504 37.255 7.07591 37.2927 7.10653 37.3154C7.11674 37.3607 7.12694 37.4061 7.13715 37.4514C6.95854 37.5496 6.77993 37.6705 6.59621 37.7385C5.26937 38.207 4.11093 39.1212 3.1158 40.4888C3.03925 40.5946 2.97801 40.723 2.90657 40.8364C2.38604 41.6826 2.36053 41.6902 2.97802 42.5591C4.09563 44.1307 5.47349 44.9845 6.97384 45.4378C8.12207 45.7854 9.28051 45.8458 10.444 45.7023C12.4241 45.4529 14.3021 44.6596 16.0525 43.2542C16.1137 43.2013 16.1699 43.1333 16.2413 43.0578C15.7463 42.5969 15.2564 42.1737 14.792 41.6977C12.9497 39.8012 11.4341 37.459 10.3777 34.5198C9.09169 30.9384 9.08149 27.2512 10.097 23.5186C10.9595 20.3603 12.4956 18.1239 14.4348 16.4163C14.5317 16.3331 14.6236 16.2425 14.7103 16.1593C14.2766 15.5624 13.8326 15.0335 13.455 14.414C11.9393 11.9206 11.7607 7.93871 12.9752 5.11287C13.802 3.18616 14.94 1.78079 16.2464 0.647427C16.3791 0.534091 16.6241 0.496329 16.7465 0.594554C18.2673 1.84881 19.5839 3.4355 20.3749 5.80044C21.365 8.76985 20.9771 12.4042 19.4257 14.7616C19.1195 15.23 18.7572 15.6229 18.4 16.0762C18.7113 16.318 19.0175 16.5447 19.3135 16.8016C21.4517 18.6679 23.0286 21.2141 23.692 24.8333C24.3606 28.4828 23.8043 31.7242 22.1356 34.5727C21.4619 35.7136 20.6556 36.6127 19.8085 37.4439C19.6401 37.6101 19.4921 37.6403 19.3084 37.5119C17.3436 36.1292 16.0882 33.9229 15.731 30.6966C15.4503 28.1805 15.828 25.7854 16.4097 23.4431C16.4454 23.2995 16.5271 23.1711 16.5883 23.0426C16.6138 23.0502 16.6445 23.0577 16.67 23.0653C16.6802 23.1711 16.7057 23.2769 16.7006 23.3826C16.6598 25.4907 16.7618 27.5761 17.1905 29.5934C17.5171 31.1273 18.0223 32.4948 18.9103 33.4922C19.0634 33.666 19.1655 33.6811 19.3135 33.4847C20.7169 31.6637 21.5385 29.4952 21.3496 26.6089C21.2578 25.2111 20.9873 23.9418 20.4617 22.7782C19.538 20.723 18.2826 19.227 16.8537 18.0105C16.7516 17.9274 16.5577 17.9349 16.4557 18.0256C15.037 19.2345 13.7969 20.7381 12.9089 22.8084C12.322 24.176 11.9648 25.672 11.8423 27.2814C11.5821 30.6966 12.2302 33.8095 13.3223 36.7563C14.1031 38.8719 15.088 40.7608 16.3179 42.3551C16.3944 42.4533 16.4761 42.544 16.5526 42.6346M19.5686 8.38451C19.5584 8.15784 19.5482 7.80272 19.5329 7.44005C19.5278 7.33427 19.5176 7.22091 19.5023 7.11513C19.1502 4.58396 18.1754 2.66482 16.8231 1.10834C16.5934 0.843888 16.3944 0.866553 16.2056 1.15367C15.7157 1.90169 15.19 2.61947 14.7563 3.43549C13.853 5.13553 13.3631 7.0547 13.5672 9.27608C13.7611 11.4144 14.5777 12.9104 15.7565 14.0362C16.7567 14.9882 16.3638 14.9731 17.3538 14.0286C18.6909 12.7442 19.5329 10.9837 19.5686 8.38451Z" fill="white"/>
<path d="M42.3431 42.6868C42.4146 42.6036 42.4963 42.513 42.5779 42.4072C43.8078 40.8129 44.7927 38.924 45.5735 36.8084C46.6656 33.8541 47.3137 30.7487 47.0534 27.3335C46.931 25.7241 46.5686 24.2281 45.9869 22.8605C45.0989 20.7903 43.8639 19.2791 42.4401 18.0777C42.338 17.9871 42.1441 17.9795 42.0421 18.0626C40.6132 19.2791 39.3578 20.7751 38.4341 22.8303C37.9085 23.9939 37.5614 25.2632 37.4696 26.6611C37.2808 29.5473 38.1789 31.7158 39.5823 33.5368C39.7303 33.7332 39.8324 33.7181 39.9855 33.5443C40.8734 32.547 41.3786 31.1794 41.7052 29.6456C42.139 27.6206 42.2411 25.5428 42.1952 23.4347C42.1952 23.329 42.2156 23.2232 42.2258 23.1174C42.2513 23.1099 42.2819 23.1023 42.3074 23.0948C42.3687 23.2308 42.4503 23.3516 42.486 23.4952C43.0729 25.8375 43.4455 28.2327 43.1648 30.7487C42.8076 33.975 41.5573 36.1813 39.5874 37.564C39.4037 37.6924 39.2608 37.6622 39.0873 37.496C38.2402 36.6648 37.4339 35.7657 36.7602 34.6248C35.0915 31.7838 34.5352 28.5424 35.2037 24.8855C35.8672 21.2663 37.4441 18.7124 39.5823 16.8537C39.8783 16.5968 40.1845 16.3777 40.4958 16.1284C40.1335 15.6675 39.7762 15.2746 39.47 14.8137C37.9187 12.4563 37.5359 8.82197 38.5208 5.85256C39.3118 3.48006 40.6285 1.90091 42.1492 0.646654C42.2717 0.540873 42.5167 0.586213 42.6493 0.699549C43.9558 1.83291 45.0938 3.24583 45.9205 5.16499C47.1351 7.99083 46.9565 11.9727 45.4408 14.4661C45.0632 15.0857 44.6192 15.6146 44.1854 16.2115C44.2722 16.287 44.364 16.3852 44.461 16.4684C46.4053 18.1684 47.9363 20.4049 48.7987 23.5708C49.8143 27.3109 49.8041 30.9905 48.5181 34.5719C47.4617 37.5111 45.9409 39.8609 44.1038 41.7499C43.6394 42.2259 43.1495 42.649 42.6545 43.1099C42.7259 43.1854 42.782 43.2534 42.8433 43.3063C44.5937 44.7117 46.4717 45.505 48.4517 45.7544C49.6153 45.8979 50.7737 45.8375 51.9219 45.4899C53.4172 45.0366 54.795 44.1903 55.9177 42.6112C56.5352 41.7423 56.5097 41.7272 55.9892 40.8885C55.9178 40.7752 55.8565 40.6467 55.78 40.5409C54.7848 39.1733 53.6264 38.2515 52.2996 37.7831C52.1158 37.7151 51.9372 37.5942 51.7586 37.496C51.7688 37.4506 51.779 37.4053 51.7892 37.36C51.8147 37.3373 51.8403 37.2995 51.8658 37.2995C53.5447 37.2164 55.1778 37.5111 56.7036 38.6293C57.4946 39.2036 58.153 40.0347 58.6378 41.1303C58.995 41.9387 58.9746 42.0899 58.5714 42.8605C57.5202 44.8553 56.1321 46.1019 54.5144 46.8197C52.7946 47.5829 51.0493 47.6131 49.2785 47.2882C47.0994 46.8877 45.0581 45.9055 43.1699 44.2508C42.8739 43.9863 42.583 43.4877 42.2921 43.4877M41.5573 14.0581C42.5422 15.0025 42.1543 15.0177 43.1546 14.0656C44.3334 12.9398 45.1499 11.4438 45.3439 9.30554C45.5429 7.08415 45.0581 5.17255 44.1548 3.46495C43.721 2.64893 43.1954 1.93114 42.7055 1.18313C42.5167 0.896009 42.3176 0.873344 42.088 1.13779C40.7356 2.69428 39.7609 4.61342 39.4088 7.14459C39.3935 7.25037 39.3833 7.3637 39.3782 7.46948C39.3629 7.8246 39.3527 8.18727 39.3425 8.41395C39.3731 11.0131 40.2151 12.7812 41.5573 14.0581Z" fill="white"/>
<path d="M15.7323 45.6232C15.5129 45.7441 15.2985 45.8952 15.074 45.9707C13.4563 46.5374 12.0427 47.6632 10.823 49.333C10.7311 49.4615 10.6546 49.6201 10.5678 49.7637C9.93504 50.7913 9.89932 50.8064 10.6546 51.8717C12.0223 53.7909 13.7063 54.8336 15.5333 55.3852C16.9316 55.8083 18.3503 55.8839 19.769 55.7025C22.1879 55.4003 24.4792 54.4331 26.6175 52.718C26.6941 52.6575 26.7604 52.5744 26.8522 52.4762C26.245 51.9095 25.6479 51.3957 25.0814 50.814C22.836 48.5019 20.9784 45.6307 19.6873 42.0417C18.1155 37.667 18.1002 33.1637 19.3454 28.6001C20.3967 24.7391 22.2747 22.0039 24.6426 19.9261C24.7599 19.8203 24.8773 19.707 24.9794 19.6163C24.4486 18.8834 23.9077 18.2412 23.4484 17.4856C21.5959 14.4406 21.3765 9.5823 22.8615 6.12933C23.872 3.7795 25.26 2.05679 26.8574 0.674095C27.0207 0.530536 27.3166 0.485211 27.4697 0.613659C29.3273 2.14747 30.9348 4.08173 31.8993 6.97557C33.1088 10.6023 32.6393 15.0451 30.7409 17.9238C30.3633 18.4905 29.9244 18.9741 29.4855 19.5332C29.8632 19.8354 30.2408 20.1074 30.598 20.4172C33.2109 22.6915 35.1399 25.812 35.9462 30.2321C36.7627 34.69 36.084 38.6492 34.0427 42.1249C33.2211 43.5227 32.2362 44.6182 31.2002 45.6383C30.991 45.8423 30.8124 45.88 30.5929 45.7214C28.1893 44.0364 26.6634 41.3391 26.2246 37.4025C25.8826 34.3273 26.3419 31.4108 27.0564 28.5472C27.1023 28.3659 27.1993 28.2223 27.2758 28.0561C27.3064 28.0636 27.3422 28.0787 27.3728 28.0863C27.3881 28.2147 27.4136 28.3432 27.4136 28.4792C27.3626 31.0557 27.4902 33.5944 28.0158 36.0651C28.4138 37.939 29.0313 39.6088 30.1183 40.8253C30.3071 41.0368 30.4296 41.0519 30.6133 40.8177C32.328 38.5888 33.4303 35.9443 33.1956 32.4157C33.0833 30.7081 32.6546 29.1592 32.0167 27.7387C30.8889 25.2302 29.3528 23.3942 27.6126 21.9133C27.4902 21.8075 27.2554 21.8226 27.1278 21.9284C25.3927 23.4017 23.8822 25.2453 22.8003 27.7765C22.0858 29.4463 21.647 31.2748 21.4939 33.2393C21.1724 37.4101 21.9685 41.2106 23.3004 44.8147C24.2547 47.3988 25.454 49.7033 26.9594 51.6526C27.0564 51.7735 27.1533 51.8869 27.2452 51.9926C27.8372 51.1917 28.3883 50.3833 28.9854 49.6579C31.2359 46.9454 33.7824 45.2 36.6862 44.7014C40.4013 44.0591 43.6725 45.6156 46.515 49.1819C46.8977 49.6655 47.2397 50.217 47.602 50.7308C47.7806 50.9802 47.7959 51.1917 47.6377 51.5166C46.4384 53.9949 44.8207 55.6194 42.9121 56.6696C41.3046 57.5537 39.6358 57.9088 37.9365 57.8332C34.5326 57.6897 31.3074 56.4959 28.3628 53.8816C28.0005 53.5567 27.6484 52.9371 27.2911 52.9371C26.9339 52.9371 26.5818 53.5491 26.2195 53.874C23.9128 55.899 21.4224 57.1003 18.7585 57.5839C16.5999 57.9768 14.4667 57.9466 12.3642 57.0096C10.3892 56.1332 8.68986 54.6145 7.40385 52.174C6.90883 51.2371 6.88842 51.0482 7.32219 50.0659C7.91417 48.721 8.72048 47.7161 9.68499 47.0134C11.5477 45.6534 13.543 45.2907 15.5945 45.3889C15.6251 45.3889 15.6609 45.4343 15.6915 45.4569C15.7068 45.5098 15.7221 45.5627 15.7323 45.6232ZM27.5463 52.3478C27.6637 52.4535 27.7249 52.514 27.7912 52.5744C29.557 54.078 31.4605 54.9771 33.4609 55.4532C35.8595 56.0198 38.2376 55.9065 40.5748 54.8487C41.8711 54.2594 43.0703 53.398 44.045 51.9549C44.4227 51.3957 44.4227 51.3429 44.0501 50.814C42.1824 48.1846 39.9267 46.8699 37.3802 46.6961C34.9409 46.5298 32.6495 47.4214 30.5062 49.129C29.4396 49.9904 28.4496 51.0104 27.5463 52.3478ZM30.9144 10.1112C30.9042 9.83921 30.8889 9.40097 30.8736 8.96274C30.8685 8.82673 30.8532 8.69829 30.8328 8.56228C30.399 5.47199 29.2099 3.12972 27.5565 1.22567C27.2758 0.900775 27.0309 0.930988 26.8012 1.28611C26.2041 2.20035 25.5611 3.07682 25.0304 4.07417C23.9281 6.152 23.331 8.49428 23.576 11.2068C23.8107 13.8135 24.811 15.642 26.2501 17.0172C27.4697 18.1807 26.9951 18.1581 28.1995 17.0096C29.8427 15.438 30.8736 13.2846 30.9144 10.1112Z" fill="white"/>
</svg>
