<svg width="12" height="15" viewBox="0 0 12 15" fill="none" xmlns="http://www.w3.org/2000/svg">
<path d="M10 1.41667H9.375V0H8.125V1.41667H3.125V0H1.875V1.41667H1.25C0.55625 1.41667 0.00624999 2.05417 0.00624999 2.83333L0 12.75C0 13.5292 0.55625 14.1667 1.25 14.1667H10C10.6875 14.1667 11.25 13.5292 11.25 12.75V2.83333C11.25 2.05417 10.6875 1.41667 10 1.41667ZM10 12.75H1.25V5.66667H10V12.75ZM10 4.25H1.25V2.83333H10V4.25ZM3.75 8.5H2.5V7.08333H3.75V8.5ZM6.25 8.5H5V7.08333H6.25V8.5ZM8.75 8.5H7.5V7.08333H8.75V8.5ZM3.75 11.3333H2.5V9.91667H3.75V11.3333ZM6.25 11.3333H5V9.91667H6.25V11.3333ZM8.75 11.3333H7.5V9.91667H8.75V11.3333Z" fill="#808080"/>
</svg>
