<svg width="60" height="55" viewBox="0 0 60 55" fill="none" xmlns="http://www.w3.org/2000/svg">
<rect width="60" height="55" rx="9" fill="#F6F6F6"/>
<path d="M42.1875 27C42.1875 33.762 36.5098 39.25 29.5 39.25C22.4902 39.25 16.8125 33.762 16.8125 27C16.8125 20.2319 22.4902 14.75 29.5 14.75C36.5098 14.75 42.1875 20.2319 42.1875 27Z" fill="#283544"/>
<path d="M35.4469 23.9002C35.3777 23.9392 33.7295 24.7622 33.7295 26.5869C33.8072 28.6678 35.8094 29.3976 35.8437 29.3976C35.8094 29.4366 35.5415 30.3917 34.7478 31.393C34.1179 32.2554 33.4188 33.125 32.3572 33.125C31.3474 33.125 30.9849 32.5502 29.8197 32.5502C28.5684 32.5502 28.2143 33.125 27.2563 33.125C26.1947 33.125 25.4438 32.2088 24.7796 31.3545C23.9167 30.2363 23.1832 28.4815 23.1573 26.7965C23.1399 25.9037 23.3302 25.026 23.8131 24.2805C24.4948 23.2398 25.7117 22.5333 27.0407 22.51C28.059 22.4791 28.9652 23.139 29.5867 23.139C30.1822 23.139 31.2956 22.51 32.5553 22.51C33.0991 22.5105 34.5491 22.6579 35.4469 23.9002ZM29.5005 22.3318C29.3193 21.5164 29.8197 20.701 30.2858 20.1809C30.8813 19.5519 31.8219 19.125 32.633 19.125C32.6848 19.9404 32.3566 20.74 31.7701 21.3224C31.2438 21.9514 30.3376 22.425 29.5005 22.3318Z" fill="white"/>
</svg>
