<svg width="59" height="68" viewBox="0 0 59 68" fill="none" xmlns="http://www.w3.org/2000/svg">
<path d="M16.5985 50.7386C16.3077 50.7386 16.0219 51.3295 15.7208 51.6294C13.8326 53.5611 11.7913 54.7165 9.61222 55.1752C7.8465 55.5544 6.09609 55.5192 4.3763 54.6283C2.75858 53.7904 1.37051 52.335 0.319243 50.0065C-0.0839118 49.1068 -0.104327 48.9304 0.252899 47.9867C0.737706 46.6989 1.39603 45.7375 2.18703 45.0672C3.71289 43.7618 5.34592 43.4178 7.02488 43.5148C7.0504 43.5148 7.07591 43.5589 7.10653 43.5854C7.11674 43.6383 7.12694 43.6912 7.13715 43.7441C6.95854 43.8588 6.77993 43.9999 6.59621 44.0793C5.26937 44.6262 4.11093 45.6934 3.1158 47.2899C3.03925 47.4133 2.97801 47.5633 2.90657 47.6956C2.38604 48.6835 2.36053 48.6923 2.97802 49.7066C4.09563 51.5412 5.47349 52.5379 6.97384 53.0671C8.12207 53.4728 9.28051 53.5434 10.444 53.3758C12.4241 53.0848 14.3021 52.1586 16.0525 50.5181C16.1137 50.4563 16.1699 50.3769 16.2413 50.2887C15.7463 49.7507 15.2564 49.2568 14.792 48.7011C12.9497 46.4872 11.4341 43.7529 10.3777 40.3219C9.09169 36.1411 9.08149 31.8368 10.097 27.4796C10.9595 23.7927 12.4956 21.182 14.4348 19.1886C14.5317 19.0916 14.6236 18.9857 14.7103 18.8887C14.2766 18.1919 13.8326 17.5745 13.455 16.8512C11.9393 13.9405 11.7607 9.29225 12.9752 5.99348C13.802 3.74432 14.94 2.10375 16.2464 0.780716C16.3791 0.648412 16.6241 0.604331 16.7465 0.718995C18.2673 2.18315 19.5839 4.03539 20.3749 6.79613C21.365 10.2625 20.9771 14.505 19.4257 17.2569C19.1195 17.8038 18.7572 18.2624 18.4 18.7917C18.7113 19.0739 19.0175 19.3385 19.3135 19.6384C21.4517 21.817 23.0286 24.7894 23.692 29.0143C24.3606 33.2745 23.8043 37.0584 22.1356 40.3836C21.4619 41.7155 20.6556 42.7651 19.8085 43.7353C19.6401 43.9294 19.4921 43.9646 19.3084 43.8147C17.3436 42.2006 16.0882 39.6251 15.731 35.8588C15.4503 32.9217 15.828 30.1257 16.4097 27.3914C16.4454 27.2238 16.5271 27.0739 16.5883 26.9239C16.6138 26.9327 16.6445 26.9416 16.67 26.9504C16.6802 27.0739 16.7057 27.1974 16.7006 27.3208C16.6598 29.7817 16.7618 32.2161 17.1905 34.5711C17.5171 36.3616 18.0223 37.958 18.9103 39.1223C19.0634 39.3252 19.1655 39.3428 19.3135 39.1135C20.7169 36.9878 21.5385 34.4564 21.3496 31.0871C21.2578 29.4553 20.9873 27.9735 20.4617 26.6152C19.538 24.2161 18.2826 22.4697 16.8537 21.0496C16.7516 20.9526 16.5577 20.9614 16.4557 21.0673C15.037 22.4785 13.7969 24.2338 12.9089 26.6505C12.322 28.247 11.9648 29.9934 11.8423 31.8721C11.5821 35.8588 12.2302 39.4928 13.3223 42.9327C14.1031 45.4023 15.088 47.6074 16.3179 49.4685C16.3944 49.5831 16.4761 49.689 16.5526 49.7948M19.5686 9.81266C19.5584 9.54806 19.5482 9.1335 19.5329 8.71013C19.5278 8.58665 19.5176 8.45432 19.5023 8.33084C19.1502 5.37606 18.1754 3.13573 16.8231 1.31876C16.5934 1.01006 16.3944 1.03651 16.2056 1.37168C15.7157 2.24489 15.19 3.0828 14.7563 4.03539C13.853 6.01994 13.3631 8.26029 13.5672 10.8534C13.7611 13.3496 14.5777 15.096 15.7565 16.4102C16.7567 17.5215 16.3638 17.5039 17.3538 16.4014C18.6909 14.9019 19.5329 12.8468 19.5686 9.81266Z" fill="white"/>
<path d="M42.3431 49.856C42.4146 49.759 42.4963 49.6532 42.5779 49.5297C43.8078 47.6686 44.7927 45.4635 45.5735 42.9939C46.6656 39.5452 47.3137 35.92 47.0534 31.9333C46.931 30.0546 46.5686 28.3082 45.9869 26.7117C45.0989 24.295 43.8639 22.5309 42.4401 21.1285C42.338 21.0226 42.1441 21.0138 42.0421 21.1109C40.6132 22.5309 39.3578 24.2773 38.4341 26.6764C37.9085 28.0347 37.5614 29.5166 37.4696 31.1483C37.2808 34.5176 38.1789 37.049 39.5823 39.1747C39.7303 39.404 39.8324 39.3864 39.9855 39.1835C40.8734 38.0192 41.3786 36.4228 41.7052 34.6323C42.139 32.2684 42.2411 29.8429 42.1952 27.382C42.1952 27.2586 42.2156 27.1351 42.2258 27.0116C42.2513 27.0028 42.2819 26.994 42.3074 26.9851C42.3687 27.1439 42.4503 27.285 42.486 27.4526C43.0729 30.1869 43.4455 32.9829 43.1648 35.92C42.8076 39.6863 41.5573 42.2618 39.5874 43.8759C39.4037 44.0258 39.2608 43.9906 39.0873 43.7965C38.2402 42.8263 37.4339 41.7767 36.7602 40.4448C35.0915 37.1284 34.5352 33.3445 35.2037 29.0755C35.8672 24.8506 37.4441 21.8694 39.5823 19.6996C39.8783 19.3997 40.1845 19.1439 40.4958 18.8529C40.1335 18.3148 39.7762 17.8562 39.47 17.3181C37.9187 14.5662 37.5359 10.3237 38.5208 6.85735C39.3118 4.08779 40.6285 2.24435 42.1492 0.780187C42.2717 0.656703 42.5167 0.709631 42.6493 0.841935C43.9558 2.16497 45.0938 3.81436 45.9205 6.0547C47.1351 9.35347 46.9565 14.0017 45.4408 16.9124C45.0632 17.6357 44.6192 18.2531 44.1854 18.9499C44.2722 19.0381 44.364 19.1528 44.461 19.2498C46.4053 21.2343 47.9363 23.8451 48.7987 27.5408C49.8143 31.9068 49.8041 36.2023 48.5181 40.3831C47.4617 43.8142 45.9409 46.5573 44.1038 48.7623C43.6394 49.318 43.1495 49.8119 42.6545 50.3499C42.7259 50.4382 42.782 50.5175 42.8433 50.5793C44.5937 52.2198 46.4717 53.146 48.4517 53.437C49.6153 53.6046 50.7737 53.5341 51.9219 53.1283C53.4172 52.5991 54.795 51.6112 55.9177 49.7678C56.5352 48.7535 56.5097 48.7358 55.9892 47.7568C55.9178 47.6245 55.8565 47.4746 55.78 47.3511C54.7848 45.7546 53.6264 44.6785 52.2996 44.1317C52.1158 44.0523 51.9372 43.9112 51.7586 43.7965C51.7688 43.7436 51.779 43.6907 51.7892 43.6378C51.8147 43.6113 51.8403 43.5672 51.8658 43.5672C53.5447 43.4702 55.1778 43.8142 56.7036 45.1196C57.4946 45.7899 58.153 46.7601 58.6378 48.0391C58.995 48.9828 58.9746 49.1592 58.5714 50.0589C57.5202 52.3874 56.1321 53.8428 54.5144 54.6807C52.7946 55.5715 51.0493 55.6068 49.2785 55.2275C47.0994 54.7601 45.0581 53.6134 43.1699 51.6818C42.8739 51.3731 42.583 50.791 42.2921 50.791M41.5573 16.4361C42.5422 17.5386 42.1543 17.5563 43.1546 16.4449C44.3334 15.1307 45.1499 13.3843 45.3439 10.8882C45.5429 8.29505 45.0581 6.06352 44.1548 4.07015C43.721 3.11756 43.1954 2.27965 42.7055 1.40644C42.5167 1.07127 42.3176 1.04482 42.088 1.35352C40.7356 3.17049 39.7609 5.41082 39.4088 8.3656C39.3935 8.48908 39.3833 8.62138 39.3782 8.74486C39.3629 9.15941 39.3527 9.58279 39.3425 9.84739C39.3731 12.8816 40.2151 14.9455 41.5573 16.4361Z" fill="white"/>
<path d="M15.7323 53.2835C15.5129 53.4246 15.2985 53.601 15.074 53.6892C13.4563 54.3507 12.0427 55.6649 10.823 57.6142C10.7311 57.7641 10.6546 57.9494 10.5678 58.117C9.93504 59.3165 9.89932 59.3342 10.6546 60.5778C12.0223 62.8182 13.7063 64.0353 15.5333 64.6792C16.9316 65.1732 18.3503 65.2614 19.769 65.0497C22.1879 64.6969 24.4792 63.5679 26.6175 61.5657C26.6941 61.4951 26.7604 61.3981 26.8522 61.2834C26.245 60.6219 25.6479 60.0221 25.0814 59.343C22.836 56.644 20.9784 53.2923 19.6873 49.1027C18.1155 43.9958 18.1002 38.7389 19.3454 33.4115C20.3967 28.9043 22.2747 25.7114 24.6426 23.2858C24.7599 23.1623 24.8773 23.03 24.9794 22.9242C24.4486 22.0686 23.9077 21.3189 23.4484 20.4369C21.5959 16.8823 21.3765 11.2109 22.8615 7.18006C23.872 4.43697 25.26 2.42595 26.8574 0.811847C27.0207 0.644262 27.3166 0.591353 27.4697 0.741297C29.3273 2.53181 30.9348 4.78977 31.8993 8.16792C33.1088 12.4016 32.6393 17.588 30.7409 20.9485C30.3633 21.61 29.9244 22.1745 29.4855 22.8272C29.8632 23.18 30.2408 23.4975 30.598 23.8591C33.2109 26.514 35.1399 30.1568 35.9462 35.3166C36.7627 40.5206 36.084 45.1424 34.0427 49.1997C33.2211 50.8315 32.2362 52.1104 31.2002 53.3011C30.991 53.5393 30.8124 53.5834 30.5929 53.3981C28.1893 51.4312 26.6634 48.2824 26.2246 43.6871C25.8826 40.0972 26.3419 36.6926 27.0564 33.3497C27.1023 33.138 27.1993 32.9705 27.2758 32.7764C27.3064 32.7852 27.3422 32.8029 27.3728 32.8117C27.3881 32.9616 27.4136 33.1116 27.4136 33.2704C27.3626 36.2781 27.4902 39.2416 28.0158 42.1259C28.4138 44.3133 29.0313 46.2626 30.1183 47.6826C30.3071 47.9296 30.4296 47.9472 30.6133 47.6738C32.328 45.0718 33.4303 41.9847 33.1956 37.8657C33.0833 35.8723 32.6546 34.0642 32.0167 32.406C30.8889 29.4776 29.3528 27.3343 27.6126 25.6056C27.4902 25.4821 27.2554 25.4997 27.1278 25.6232C25.3927 27.3431 23.8822 29.4953 22.8003 32.4501C22.0858 34.3993 21.647 36.5338 21.4939 38.8271C21.1724 43.6959 21.9685 48.1325 23.3004 52.3397C24.2547 55.3562 25.454 58.0464 26.9594 60.322C27.0564 60.4631 27.1533 60.5955 27.2452 60.7189C27.8372 59.784 28.3883 58.8402 28.9854 57.9935C31.2359 54.827 33.7824 52.7896 36.6862 52.2074C40.4013 51.4577 43.6725 53.2747 46.515 57.4378C46.8977 58.0023 47.2397 58.6462 47.602 59.2459C47.7806 59.537 47.7959 59.784 47.6377 60.1633C46.4384 63.0563 44.8207 64.9527 42.9121 66.1787C41.3046 67.2106 39.6358 67.6252 37.9365 67.537C34.5326 67.3694 31.3074 65.9758 28.3628 62.924C28.0005 62.5447 27.6484 61.8215 27.2911 61.8215C26.9339 61.8215 26.5818 62.5359 26.2195 62.9152C23.9128 65.279 21.4224 66.6814 18.7585 67.2459C16.5999 67.7046 14.4667 67.6693 12.3642 66.5756C10.3892 65.5524 8.68986 63.7796 7.40385 60.9306C6.90883 59.8369 6.88842 59.6164 7.32219 58.4698C7.91417 56.8998 8.72048 55.7267 9.68499 54.9064C11.5477 53.3188 13.543 52.8954 15.5945 53.01C15.6251 53.01 15.6609 53.063 15.6915 53.0894C15.7068 53.1512 15.7221 53.2129 15.7323 53.2835ZM27.5463 61.1335C27.6637 61.257 27.7249 61.3275 27.7912 61.3981C29.557 63.1533 31.4605 64.2029 33.4609 64.7586C35.8595 65.4201 38.2376 65.2878 40.5748 64.053C41.8711 63.365 43.0703 62.3595 44.045 60.6748C44.4227 60.0221 44.4227 59.9604 44.0501 59.343C42.1824 56.2735 39.9267 54.7388 37.3802 54.5359C34.9409 54.3419 32.6495 55.3827 30.5062 57.3761C29.4396 58.3816 28.4496 59.5723 27.5463 61.1335ZM30.9144 11.8283C30.9042 11.5108 30.8889 10.9992 30.8736 10.4877C30.8685 10.3289 30.8532 10.1789 30.8328 10.0202C30.399 6.4127 29.2099 3.67844 27.5565 1.45573C27.2758 1.07646 27.0309 1.11173 26.8012 1.52628C26.2041 2.59353 25.5611 3.61668 25.0304 4.78096C23.9281 7.20652 23.331 9.9408 23.576 13.1073C23.8107 16.1502 24.811 18.2847 26.2501 19.89C27.4697 21.2484 26.9951 21.2219 28.1995 19.8812C29.8427 18.0466 30.8736 15.5328 30.9144 11.8283Z" fill="white"/>
</svg>
