<svg width="57" height="51" viewBox="0 0 57 51" fill="none" xmlns="http://www.w3.org/2000/svg">
<rect x="0.945312" y="0.10437" width="55.1648" height="50.7014" rx="9" fill="#F6F6F6"/>
<path d="M39.7325 24.9937C39.7325 31.2272 34.5124 36.2863 28.0674 36.2863C21.6225 36.2863 16.4023 31.2272 16.4023 24.9937C16.4023 18.7546 21.6225 13.7012 28.0674 13.7012C34.5124 13.7012 39.7325 18.7546 39.7325 24.9937Z" fill="#283544"/>
<path d="M33.5346 22.1361C33.4709 22.1721 31.9556 22.9307 31.9556 24.6128C32.027 26.5311 33.8679 27.2039 33.8994 27.2039C33.8679 27.2398 33.6215 28.1203 32.8918 29.0433C32.3127 29.8383 31.6699 30.6399 30.6939 30.6399C29.7654 30.6399 29.4321 30.1101 28.3608 30.1101C27.2104 30.1101 26.8849 30.6399 26.004 30.6399C25.028 30.6399 24.3376 29.7954 23.7269 29.0078C22.9335 27.977 22.2592 26.3593 22.2354 24.8061C22.2193 23.983 22.3943 23.174 22.8383 22.4867C23.465 21.5273 24.5839 20.8761 25.8058 20.8546C26.742 20.8261 27.5752 21.4344 28.1466 21.4344C28.6941 21.4344 29.7178 20.8546 30.876 20.8546C31.376 20.8551 32.7091 20.9909 33.5346 22.1361ZM28.0674 20.6903C27.9008 19.9386 28.3608 19.187 28.7894 18.7075C29.3369 18.1277 30.2017 17.7341 30.9475 17.7341C30.9951 18.4858 30.6934 19.2229 30.1541 19.7598C29.6702 20.3397 28.837 20.7762 28.0674 20.6903Z" fill="white"/>
</svg>
