<svg width="50" height="20" viewBox="0 0 50 20" fill="none" xmlns="http://www.w3.org/2000/svg">
<path d="M14.0924 14.442C13.8454 14.442 13.6028 14.6071 13.3472 14.6908C11.7441 15.2303 10.011 15.553 8.16091 15.6811C6.66179 15.787 5.17566 15.7771 3.71554 15.5283C2.34207 15.2943 1.16358 14.8879 0.271042 14.2376C-0.0712423 13.9863 -0.0885752 13.9371 0.214715 13.6735C0.626322 13.3139 1.18525 13.0454 1.85682 12.8582C3.1523 12.4936 4.53876 12.3976 5.96422 12.4246C5.98588 12.4246 6.00755 12.437 6.03354 12.4444C6.04221 12.4591 6.05087 12.4739 6.05954 12.4887C5.90789 12.5207 5.75625 12.5601 5.60027 12.5823C4.47377 12.735 3.49024 13.0331 2.64536 13.4789C2.58037 13.5134 2.52837 13.5553 2.46772 13.5922C2.02578 13.8681 2.00412 13.8706 2.52838 14.1538C3.47725 14.6662 4.64707 14.9445 5.92089 15.0923C6.89575 15.2056 7.87928 15.2254 8.86714 15.1786C10.5482 15.0973 12.1427 14.8386 13.6288 14.3805C13.6808 14.3632 13.7284 14.341 13.7891 14.3164C13.3688 14.1662 12.9529 14.0282 12.5586 13.873C10.9945 13.2548 9.70769 12.4912 8.81081 11.533C7.71897 10.3654 7.71031 9.16332 8.57252 7.94648C9.30475 6.91684 10.6089 6.18772 12.2553 5.63103C12.3376 5.60393 12.4156 5.57437 12.4893 5.54727C12.121 5.35268 11.7441 5.18025 11.4234 4.97826C10.1366 4.16539 9.98498 2.86727 11.0162 1.94601C11.7181 1.31789 12.6843 0.859722 13.7934 0.490236C13.9061 0.453287 14.1141 0.440977 14.218 0.472999C15.5092 0.881897 16.627 1.39917 17.2986 2.17017C18.1391 3.13822 17.8099 4.32305 16.4927 5.09158C16.2328 5.2443 15.9251 5.37239 15.6218 5.52018C15.8861 5.599 16.1461 5.6729 16.3974 5.75665C18.2128 6.36507 19.5516 7.19518 20.1149 8.37508C20.6824 9.56482 20.2102 10.6216 18.7934 11.5502C18.2215 11.9221 17.5369 12.2153 16.8177 12.4862C16.6747 12.5404 16.549 12.5503 16.3931 12.5084C14.725 12.0576 13.6591 11.3384 13.3558 10.2866C13.1175 9.4663 13.4382 8.68545 13.9321 7.92184C13.9624 7.87504 14.0317 7.83317 14.0837 7.79129C14.1054 7.79375 14.1314 7.79622 14.153 7.79868C14.1617 7.83317 14.1834 7.86765 14.179 7.90214C14.1444 8.58938 14.231 9.26923 14.595 9.92692C14.8723 10.427 15.3012 10.8728 16.0551 11.198C16.1851 11.2546 16.2717 11.2595 16.3974 11.1955C17.5889 10.6019 18.2865 9.8949 18.1261 8.95394C18.0482 8.49824 17.8185 8.08441 17.3723 7.70508C16.588 7.03507 15.5222 6.54735 14.309 6.15077C14.2224 6.12367 14.0577 6.12613 13.9711 6.15569C12.7666 6.54981 11.7137 7.04 10.9598 7.71493C10.4616 8.16078 10.1583 8.64849 10.0543 9.17317C9.83333 10.2866 10.3836 11.3014 11.3108 12.2621C11.9737 12.9518 12.8099 13.5676 13.8541 14.0873C13.9191 14.1194 13.9884 14.1489 14.0534 14.1785M16.614 3.0126C16.6054 2.9387 16.5967 2.82293 16.5837 2.7047C16.5794 2.67021 16.5707 2.63326 16.5577 2.59877C16.2587 1.77358 15.4312 1.14793 14.283 0.640498C14.0881 0.554284 13.9191 0.561673 13.7588 0.655277C13.3428 0.899137 12.8966 1.13314 12.5283 1.39917C11.7614 1.9534 11.3455 2.57907 11.5188 3.30326C11.6834 4.00036 12.3766 4.48808 13.3775 4.8551C14.2267 5.16547 13.8931 5.16055 14.7336 4.85264C15.8688 4.43389 16.5837 3.85996 16.614 3.0126Z" fill="white"/>
<path d="M35.9501 14.1962C36.0107 14.1691 36.0801 14.1395 36.1494 14.105C37.1936 13.5853 38.0298 12.9695 38.6927 12.2797C39.6199 11.3166 40.1702 10.3042 39.9492 9.19084C39.8452 8.66617 39.5376 8.17845 39.0436 7.73261C38.2898 7.05768 37.2412 6.56503 36.0324 6.17337C35.9458 6.14381 35.7811 6.14135 35.6945 6.16845C34.4813 6.56503 33.4155 7.05275 32.6312 7.72275C32.185 8.10209 31.8903 8.51592 31.8124 8.97162C31.652 9.91258 32.4146 10.6195 33.6061 11.2132C33.7317 11.2772 33.8184 11.2723 33.9484 11.2156C34.7023 10.8905 35.1312 10.4446 35.4085 9.94459C35.7768 9.28444 35.8634 8.60705 35.8244 7.91981C35.8244 7.88532 35.8418 7.85084 35.8504 7.81636C35.8721 7.81389 35.8981 7.81143 35.9198 7.80897C35.9718 7.8533 36.0411 7.89272 36.0714 7.93952C36.5697 8.70312 36.886 9.48397 36.6477 10.3042C36.3444 11.356 35.2829 12.0753 33.6104 12.5261C33.4544 12.5679 33.3331 12.5581 33.1858 12.5039C32.4666 12.2329 31.782 11.9398 31.2101 11.5679C29.7933 10.6417 29.321 9.58496 29.8886 8.39275C30.4519 7.21286 31.7907 6.38028 33.6061 5.77433C33.8574 5.69058 34.1174 5.61914 34.3816 5.53786C34.074 5.3876 33.7707 5.2595 33.5108 5.10925C32.1936 4.34072 31.8687 3.1559 32.7049 2.18784C33.3765 1.41439 34.4943 0.899565 35.7855 0.490667C35.8894 0.456182 36.0974 0.470963 36.2101 0.507912C37.3192 0.877398 38.2854 1.33803 38.9873 1.96369C40.0185 2.88494 39.8669 4.18307 38.58 4.99594C38.2594 5.19793 37.8825 5.37035 37.5142 5.56495C37.5879 5.58958 37.6659 5.6216 37.7482 5.6487C39.3989 6.20293 40.6987 6.93205 41.431 7.96415C42.2932 9.18346 42.2845 10.3831 41.1927 11.5506C40.2958 12.5088 39.0047 13.2749 37.4449 13.8907C37.0506 14.0459 36.6347 14.1838 36.2144 14.3341C36.275 14.3587 36.3227 14.3809 36.3747 14.3981C37.8608 14.8563 39.4553 15.1149 41.1363 15.1962C42.1242 15.243 43.1077 15.2233 44.0826 15.11C45.3521 14.9622 46.5219 14.6863 47.4751 14.1715C47.9994 13.8882 47.9777 13.8833 47.5358 13.6099C47.4751 13.573 47.4231 13.5311 47.3581 13.4966C46.5132 13.0507 45.5297 12.7502 44.4032 12.5975C44.2472 12.5753 44.0956 12.5359 43.9439 12.5039C43.9526 12.4891 43.9613 12.4743 43.9699 12.4596C43.9916 12.4522 44.0133 12.4399 44.0349 12.4399C45.4604 12.4128 46.8469 12.5088 48.1423 12.8734C48.8139 13.0606 49.3728 13.3316 49.7844 13.6887C50.0877 13.9523 50.0704 14.0016 49.7281 14.2528C48.8356 14.9031 47.6571 15.3095 46.2836 15.5435C44.8235 15.7923 43.3417 15.8022 41.8383 15.6963C39.9882 15.5657 38.2551 15.2455 36.652 14.706C36.4007 14.6198 36.1537 14.4573 35.9068 14.4573M35.2829 4.86292C36.1191 5.17083 35.7898 5.17576 36.639 4.86539C37.6399 4.49837 38.3331 4.01065 38.4977 3.31355C38.6667 2.58936 38.2551 1.96615 37.4882 1.40946C37.1199 1.14343 36.6737 0.909424 36.2577 0.665563C36.0974 0.571959 35.9284 0.56457 35.7335 0.650784C34.5853 1.15821 33.7577 1.78387 33.4588 2.60906C33.4458 2.64354 33.4371 2.68049 33.4328 2.71497C33.4198 2.83075 33.4111 2.94898 33.4025 3.02288C33.4285 3.87024 34.1434 4.44664 35.2829 4.86292Z" fill="white"/>
<path d="M13.3573 15.1528C13.171 15.1922 12.989 15.2414 12.7984 15.2661C11.4249 15.4508 10.2248 15.8178 9.18925 16.3622C9.11126 16.4041 9.04627 16.4558 8.97261 16.5026C8.43536 16.8376 8.40504 16.8425 9.04628 17.1899C10.2074 17.8155 11.6372 18.1555 13.1883 18.3353C14.3755 18.4732 15.58 18.4978 16.7845 18.4387C18.8382 18.3402 20.7836 18.0249 22.599 17.4657C22.664 17.446 22.7203 17.4189 22.7983 17.3869C22.2827 17.2022 21.7758 17.0347 21.2948 16.845C19.3885 16.0913 17.8113 15.1552 16.7152 13.9852C15.3807 12.559 15.3677 11.0909 16.4249 9.60307C17.3174 8.34436 18.9119 7.45267 20.9222 6.77528C21.0219 6.74079 21.1215 6.70384 21.2082 6.67428C20.7576 6.43535 20.2983 6.22597 19.9084 5.97965C18.3356 4.98696 18.1493 3.40309 19.4101 2.27739C20.268 1.51132 21.4465 0.949703 22.8026 0.49893C22.9413 0.452128 23.1926 0.437352 23.3226 0.479227C24.8997 0.979266 26.2645 1.60985 27.0834 2.55327C28.1102 3.73563 27.7116 5.18402 26.0998 6.12252C25.7792 6.30726 25.4066 6.4649 25.034 6.64718C25.3546 6.74571 25.6752 6.83439 25.9785 6.93538C28.1969 7.67682 29.8346 8.69414 30.5192 10.1351C31.2124 11.5884 30.6362 12.8792 28.9031 14.0123C28.2055 14.468 27.3693 14.8252 26.4898 15.1577C26.3121 15.2242 26.1605 15.2365 25.9742 15.1848C23.9335 14.6355 22.638 13.7561 22.2654 12.4728C21.9751 11.4702 22.365 10.5194 22.9716 9.58584C23.0106 9.52672 23.0929 9.47992 23.1579 9.42573C23.1839 9.42819 23.2143 9.43311 23.2402 9.43557C23.2532 9.47745 23.2749 9.51933 23.2749 9.56367C23.2316 10.4036 23.3399 11.2313 23.7862 12.0368C24.1241 12.6476 24.6484 13.192 25.5712 13.5886C25.7315 13.6576 25.8355 13.6625 25.9915 13.5861C27.4473 12.8595 28.3832 11.9973 28.1839 10.847C28.0885 10.2903 27.7246 9.78536 27.183 9.32227C26.2255 8.50447 24.9213 7.9059 23.4439 7.42311C23.3399 7.38862 23.1406 7.39355 23.0323 7.42803C21.5591 7.90837 20.2767 8.50939 19.3581 9.33458C18.7515 9.87896 18.3789 10.4751 18.249 11.1155C17.976 12.4752 18.6519 13.7142 19.7827 14.8892C20.593 15.7316 21.6111 16.4829 22.8893 17.1184C22.9716 17.1578 23.0539 17.1948 23.1319 17.2293C23.6345 16.9682 24.1024 16.7046 24.6094 16.4681C26.5201 15.5838 28.6821 15.0148 31.1474 14.8523C34.3017 14.6429 37.0789 15.1503 39.4922 16.313C39.8172 16.4706 40.1075 16.6504 40.4151 16.8179C40.5668 16.8992 40.5798 16.9682 40.4454 17.0741C39.4273 17.882 38.0538 18.4116 36.4333 18.754C35.0685 19.0422 33.6517 19.158 32.209 19.1334C29.319 19.0866 26.5808 18.6974 24.0808 17.8451C23.7732 17.7392 23.4742 17.5372 23.1709 17.5372C22.8676 17.5372 22.5687 17.7367 22.261 17.8426C20.3027 18.5028 18.1883 18.8944 15.9266 19.0521C14.0939 19.1802 12.2828 19.1703 10.4977 18.8649C8.82098 18.5791 7.37818 18.084 6.28634 17.2884C5.86607 16.983 5.84874 16.9214 6.21702 16.6011C6.71961 16.1627 7.40418 15.8351 8.22306 15.606C9.8045 15.1626 11.4986 15.0444 13.2403 15.0764C13.2663 15.0764 13.2967 15.0912 13.3227 15.0986C13.3357 15.1158 13.3487 15.1331 13.3573 15.1528ZM23.3876 17.3451C23.4872 17.3795 23.5392 17.3992 23.5955 17.4189C25.0946 17.9091 26.7107 18.2023 28.4092 18.3574C30.4455 18.5422 32.4646 18.5052 34.449 18.1604C35.5495 17.9683 36.5677 17.6874 37.3952 17.217C37.7158 17.0347 37.7158 17.0174 37.3995 16.845C35.8138 15.9878 33.8987 15.5592 31.7367 15.5025C29.6657 15.4484 27.7203 15.739 25.9005 16.2957C24.995 16.5765 24.1544 16.9091 23.3876 17.3451ZM26.2471 3.57553C26.2385 3.48685 26.2255 3.34398 26.2125 3.20111C26.2081 3.15677 26.1952 3.11489 26.1778 3.07056C25.8095 2.06309 24.8 1.29949 23.3962 0.678749C23.1579 0.57283 22.9499 0.58268 22.755 0.698452C22.248 0.996504 21.7021 1.28224 21.2515 1.60739C20.3157 2.28478 19.8087 3.04839 20.0167 3.93269C20.216 4.78251 21.0652 5.37862 22.287 5.82693C23.3226 6.20626 22.9196 6.19887 23.9421 5.82446C25.3373 5.31211 26.2125 4.61009 26.2471 3.57553Z" fill="white"/>
</svg>
