<svg width="27" height="27" viewBox="0 0 27 27" fill="none" xmlns="http://www.w3.org/2000/svg">
<path d="M21.9375 11.6591C21.9375 18.1023 13.5 23.625 13.5 23.625C13.5 23.625 5.0625 18.1023 5.0625 11.6591C5.0625 9.46201 5.95145 7.35492 7.53379 5.80135C9.11612 4.24779 11.2622 3.375 13.5 3.375C15.7378 3.375 17.8839 4.24779 19.4662 5.80135C21.0485 7.35492 21.9375 9.46201 21.9375 11.6591Z" stroke="#D26600" stroke-width="2" stroke-linecap="round" stroke-linejoin="round"/>
<path d="M13.5 15.1875C15.364 15.1875 16.875 13.6765 16.875 11.8125C16.875 9.94854 15.364 8.4375 13.5 8.4375C11.636 8.4375 10.125 9.94854 10.125 11.8125C10.125 13.6765 11.636 15.1875 13.5 15.1875Z" stroke="#D26600" stroke-width="2" stroke-linecap="round" stroke-linejoin="round"/>
</svg>
