<svg width="18" height="20" viewBox="0 0 18 20" fill="none" xmlns="http://www.w3.org/2000/svg">
<path d="M14.625 8.63636C14.625 13.4091 9 17.5 9 17.5C9 17.5 3.375 13.4091 3.375 8.63636C3.375 7.0089 3.96763 5.44809 5.02252 4.2973C6.07742 3.14651 7.50816 2.5 9 2.5C10.4918 2.5 11.9226 3.14651 12.9775 4.2973C14.0324 5.44809 14.625 7.0089 14.625 8.63636Z" stroke="white" stroke-width="2" stroke-linecap="round" stroke-linejoin="round"/>
<path d="M9 11.25C10.2426 11.25 11.25 10.1307 11.25 8.75C11.25 7.36929 10.2426 6.25 9 6.25C7.75736 6.25 6.75 7.36929 6.75 8.75C6.75 10.1307 7.75736 11.25 9 11.25Z" stroke="white" stroke-width="2" stroke-linecap="round" stroke-linejoin="round"/>
</svg>
