<svg width="24" height="25" viewBox="0 0 24 25" fill="none" xmlns="http://www.w3.org/2000/svg">
<path d="M19.5 10.8636C19.5 16.5909 12 21.5 12 21.5C12 21.5 4.5 16.5909 4.5 10.8636C4.5 8.91068 5.29018 7.03771 6.6967 5.65676C8.10322 4.27581 10.0109 3.5 12 3.5C13.9891 3.5 15.8968 4.27581 17.3033 5.65676C18.7098 7.03771 19.5 8.91068 19.5 10.8636Z" stroke="#D26600" stroke-width="2" stroke-linecap="round" stroke-linejoin="round"/>
<path d="M12 14C13.6569 14 15 12.6569 15 11C15 9.34315 13.6569 8 12 8C10.3431 8 9 9.34315 9 11C9 12.6569 10.3431 14 12 14Z" stroke="#D26600" stroke-width="2" stroke-linecap="round" stroke-linejoin="round"/>
</svg>
