<svg width="25" height="28" viewBox="0 0 25 28" fill="none" xmlns="http://www.w3.org/2000/svg">
<path d="M20.3125 12.0909C20.3125 18.7727 12.5 24.5 12.5 24.5C12.5 24.5 4.6875 18.7727 4.6875 12.0909C4.6875 9.81246 5.5106 7.62733 6.97573 6.01622C8.44086 4.40511 10.428 3.5 12.5 3.5C14.572 3.5 16.5591 4.40511 18.0243 6.01622C19.4894 7.62733 20.3125 9.81246 20.3125 12.0909Z" stroke="#F58021" stroke-width="2" stroke-linecap="round" stroke-linejoin="round"/>
<path d="M12.5 15.75C14.2259 15.75 15.625 14.183 15.625 12.25C15.625 10.317 14.2259 8.75 12.5 8.75C10.7741 8.75 9.375 10.317 9.375 12.25C9.375 14.183 10.7741 15.75 12.5 15.75Z" stroke="#F58021" stroke-width="2" stroke-linecap="round" stroke-linejoin="round"/>
</svg>
