<svg width="28" height="28" viewBox="0 0 28 28" fill="none" xmlns="http://www.w3.org/2000/svg">
<path d="M9.33333 3.5C6.11683 3.5 3.5 6.11683 3.5 9.33333V18.6667C3.5 21.8832 6.11683 24.5 9.33333 24.5H18.6667C21.8832 24.5 24.5 21.8832 24.5 18.6667V9.33333C24.5 6.11683 21.8832 3.5 18.6667 3.5H9.33333ZM9.33333 5.83333H18.6667C20.5963 5.83333 22.1667 7.40367 22.1667 9.33333V18.6667C22.1667 20.5963 20.5963 22.1667 18.6667 22.1667H9.33333C7.40367 22.1667 5.83333 20.5963 5.83333 18.6667V9.33333C5.83333 7.40367 7.40367 5.83333 9.33333 5.83333ZM19.8333 7C19.5239 7 19.2272 7.12292 19.0084 7.34171C18.7896 7.5605 18.6667 7.85725 18.6667 8.16667C18.6667 8.47609 18.7896 8.77283 19.0084 8.99162C19.2272 9.21042 19.5239 9.33333 19.8333 9.33333C20.1428 9.33333 20.4395 9.21042 20.6583 8.99162C20.8771 8.77283 21 8.47609 21 8.16667C21 7.85725 20.8771 7.5605 20.6583 7.34171C20.4395 7.12292 20.1428 7 19.8333 7ZM14 8.16667C10.7835 8.16667 8.16667 10.7835 8.16667 14C8.16667 17.2165 10.7835 19.8333 14 19.8333C17.2165 19.8333 19.8333 17.2165 19.8333 14C19.8333 10.7835 17.2165 8.16667 14 8.16667ZM14 10.5C15.9297 10.5 17.5 12.0703 17.5 14C17.5 15.9297 15.9297 17.5 14 17.5C12.0703 17.5 10.5 15.9297 10.5 14C10.5 12.0703 12.0703 10.5 14 10.5Z" fill="#F58021"/>
</svg>
