<svg width="36" height="36" viewBox="0 0 36 36" fill="none" xmlns="http://www.w3.org/2000/svg">
<g clip-path="url(#clip0_423_764)">
<path d="M18 35.9998C27.9411 35.9998 36 27.9409 36 17.9998C36 8.05863 27.9411 -0.000244141 18 -0.000244141C8.05888 -0.000244141 0 8.05863 0 17.9998C0 27.9409 8.05888 35.9998 18 35.9998Z" fill="#007AB9"/>
<path d="M28.7551 19.4481V26.8691H24.4526V19.9455C24.4526 18.207 23.8314 17.0198 22.2736 17.0198C21.0848 17.0198 20.3786 17.8191 20.0667 18.593C19.9534 18.8696 19.9242 19.2537 19.9242 19.6416V26.8688H15.6214C15.6214 26.8688 15.6792 15.1424 15.6214 13.9286H19.9246V15.7623C19.9159 15.7768 19.9037 15.7909 19.896 15.8047H19.9246V15.7623C20.4963 14.8825 21.5161 13.6247 23.8022 13.6247C26.6329 13.6247 28.7551 15.4742 28.7551 19.4481ZM11.1203 7.69092C9.64847 7.69092 8.68555 8.65705 8.68555 9.9264C8.68555 11.1688 9.62055 12.1628 11.0638 12.1628H11.0917C12.5924 12.1628 13.5255 11.1688 13.5255 9.9264C13.4969 8.65705 12.5924 7.69092 11.1203 7.69092ZM8.94128 26.8691H13.2425V13.9286H8.94128V26.8691Z" fill="#F1F2F2"/>
</g>
<defs>
<clipPath id="clip0_423_764">
<rect width="36" height="36" fill="white"/>
</clipPath>
</defs>
</svg>
