<svg width="28" height="28" viewBox="0 0 28 28" fill="none" xmlns="http://www.w3.org/2000/svg">
<path d="M4.66732 23.3333C4.02565 23.3333 3.47635 23.1048 3.0194 22.6479C2.56246 22.1909 2.33398 21.6416 2.33398 21V6.99996C2.33398 6.35829 2.56246 5.80899 3.0194 5.35204C3.47635 4.8951 4.02565 4.66663 4.66732 4.66663H23.334C23.9757 4.66663 24.525 4.8951 24.9819 5.35204C25.4388 5.80899 25.6673 6.35829 25.6673 6.99996V21C25.6673 21.6416 25.4388 22.1909 24.9819 22.6479C24.525 23.1048 23.9757 23.3333 23.334 23.3333H4.66732ZM14.0007 15.1666L4.66732 9.33329V21H23.334V9.33329L14.0007 15.1666ZM14.0007 12.8333L23.334 6.99996H4.66732L14.0007 12.8333ZM4.66732 9.33329V6.99996V21V9.33329Z" fill="#F58021"/>
</svg>
