<svg width="21" height="20" viewBox="0 0 21 20" fill="none" xmlns="http://www.w3.org/2000/svg">
<g clip-path="url(#clip0_538_1930)">
<path d="M14.6673 17.5V15.8333C14.6673 14.9493 14.3161 14.1014 13.691 13.4763C13.0659 12.8512 12.218 12.5 11.334 12.5H4.66732C3.78326 12.5 2.93542 12.8512 2.3103 13.4763C1.68517 14.1014 1.33398 14.9493 1.33398 15.8333V17.5M19.6673 17.5V15.8333C19.6668 15.0948 19.4209 14.3773 18.9685 13.7936C18.516 13.2099 17.8824 12.793 17.1673 12.6083M13.834 2.60833C14.551 2.79192 15.1865 3.20892 15.6403 3.79359C16.0942 4.37827 16.3405 5.09736 16.3405 5.8375C16.3405 6.57764 16.0942 7.29673 15.6403 7.88141C15.1865 8.46608 14.551 8.88308 13.834 9.06667M11.334 5.83333C11.334 7.67428 9.8416 9.16667 8.00065 9.16667C6.1597 9.16667 4.66732 7.67428 4.66732 5.83333C4.66732 3.99238 6.1597 2.5 8.00065 2.5C9.8416 2.5 11.334 3.99238 11.334 5.83333Z" stroke="#F3F3F3" stroke-width="2" stroke-linecap="round" stroke-linejoin="round"/>
</g>
<defs>
<clipPath id="clip0_538_1930">
<rect width="20" height="20" fill="white" transform="translate(0.5)"/>
</clipPath>
</defs>
</svg>
