<svg width="16" height="15" viewBox="0 0 16 15" fill="none" xmlns="http://www.w3.org/2000/svg">
<path d="M15.7658 7.1343L9.3657 0.734232C9.25382 0.622383 9.11128 0.546217 8.95612 0.515363C8.80096 0.484509 8.64013 0.500351 8.49397 0.560888C8.34781 0.621425 8.22287 0.723937 8.13496 0.855466C8.04706 0.986996 8.00012 1.14164 8.00009 1.29984V4.13587C5.81469 4.3381 3.78342 5.34857 2.30378 6.96952C0.824132 8.59047 0.00261741 10.7052 0 12.9V14.1C0.000126286 14.266 0.0519283 14.4279 0.148221 14.5632C0.244513 14.6985 0.380524 14.8005 0.537386 14.855C0.694249 14.9096 0.864189 14.9139 1.02363 14.8675C1.18308 14.8211 1.32413 14.7262 1.42722 14.596C2.21098 13.6639 3.17264 12.8974 4.256 12.3413C5.33936 11.7851 6.5227 11.4504 7.73688 11.3567C7.77688 11.3519 7.87688 11.3439 8.00009 11.3359V14.1C8.00012 14.2582 8.04706 14.4128 8.13496 14.5443C8.22287 14.6759 8.34781 14.7784 8.49397 14.8389C8.64013 14.8995 8.80096 14.9153 8.95612 14.8844C9.11128 14.8536 9.25382 14.7774 9.3657 14.6656L15.7658 8.26551C15.9157 8.11549 16 7.91204 16 7.69991C16 7.48777 15.9157 7.28432 15.7658 7.1343ZM9.6001 12.1688V10.4999C9.6001 10.2878 9.51582 10.0843 9.36579 9.93424C9.21575 9.78421 9.01227 9.69993 8.80009 9.69993C8.59609 9.69993 7.76328 9.73993 7.55048 9.76793C5.39435 9.96659 3.34197 10.7858 1.64162 12.1264C1.83461 10.3619 2.67166 8.73059 3.99249 7.54483C5.31331 6.35907 7.0251 5.70216 8.80009 5.69988C9.01227 5.69988 9.21575 5.6156 9.36579 5.46557C9.51582 5.31554 9.6001 5.11205 9.6001 4.89988V3.23106L14.069 7.69991L9.6001 12.1688Z" fill="#D26600"/>
</svg>
