<svg width="24" height="24" viewBox="0 0 24 24" fill="none" xmlns="http://www.w3.org/2000/svg">
<path d="M23.162 9.69603C22.8248 9.29121 22.4028 8.96533 21.9259 8.7414C21.449 8.51747 20.9287 8.40094 20.4018 8.40004H14.9293L15.6014 6.68404C15.8809 5.9327 15.974 5.12477 15.8727 4.32955C15.7713 3.53433 15.4786 2.77556 15.0195 2.11832C14.5605 1.46109 13.9488 0.925007 13.2371 0.556064C12.5253 0.187121 11.7347 -0.00367131 10.933 5.35094e-05C10.7021 0.000535142 10.4763 0.0675837 10.2826 0.19316C10.0889 0.318737 9.9355 0.497512 9.84086 0.708052L6.42056 8.40004H3.60031C2.64545 8.40004 1.7297 8.77932 1.05451 9.45445C0.379318 10.1296 0 11.0453 0 12V20.4C0 21.3548 0.379318 22.2705 1.05451 22.9456C1.7297 23.6207 2.64545 24 3.60031 24H18.8776C19.7199 23.9997 20.5354 23.7042 21.1822 23.1648C21.8291 22.6255 22.2663 21.8764 22.4179 21.048L23.9421 12.648C24.0364 12.1289 24.0153 11.5954 23.8805 11.0852C23.7457 10.5751 23.5004 10.1009 23.162 9.69603ZM6.00052 21.6H3.60031C3.28203 21.6 2.97677 21.4736 2.75171 21.2485C2.52665 21.0235 2.40021 20.7183 2.40021 20.4V12C2.40021 11.6818 2.52665 11.3765 2.75171 11.1515C2.97677 10.9265 3.28203 10.8 3.60031 10.8H6.00052V21.6ZM21.6019 12.216L20.0777 20.616C20.0266 20.8956 19.8779 21.1479 19.6582 21.3281C19.4384 21.5083 19.1618 21.6046 18.8776 21.6H8.40073V9.85203L11.665 2.50805C12.001 2.606 12.3131 2.77254 12.5815 2.99715C12.8499 3.22176 13.0688 3.49957 13.2244 3.81304C13.38 4.12651 13.469 4.46883 13.4856 4.8184C13.5023 5.16797 13.4463 5.5172 13.3212 5.84404L12.6851 7.56004C12.5496 7.92274 12.5038 8.31285 12.5517 8.69707C12.5997 9.08129 12.7399 9.44821 12.9603 9.76652C13.1808 10.0848 13.475 10.3451 13.8179 10.525C14.1608 10.705 14.5421 10.7994 14.9293 10.8H20.4018C20.5781 10.7997 20.7523 10.8383 20.912 10.913C21.0717 10.9876 21.213 11.0966 21.3259 11.232C21.4415 11.3656 21.5261 11.5231 21.5739 11.6932C21.6216 11.8633 21.6311 12.0418 21.6019 12.216Z" fill="#D26600"/>
</svg>
