<svg width="25" height="22" viewBox="0 0 25 22" fill="none" xmlns="http://www.w3.org/2000/svg">
<path d="M24.1487 10.1516L14.5485 0.551543C14.3807 0.38377 14.1669 0.269521 13.9342 0.22324C13.7014 0.176958 13.4602 0.200722 13.241 0.291527C13.0217 0.382332 12.8343 0.536101 12.7024 0.733395C12.5706 0.930689 12.5002 1.16265 12.5001 1.39995V5.654C9.22204 5.95735 6.17513 7.47305 3.95567 9.90448C1.7362 12.3359 0.503926 15.508 0.5 18.8001V20.6002C0.500189 20.8493 0.577892 21.0921 0.722331 21.2951C0.86677 21.498 1.07079 21.651 1.30608 21.7328C1.54137 21.8145 1.79628 21.8211 2.03545 21.7514C2.27462 21.6818 2.48619 21.5395 2.64082 21.3442C3.81647 19.9461 5.25896 18.7963 6.884 17.9621C8.50904 17.1278 10.2841 16.6258 12.1053 16.4853C12.1653 16.4781 12.3153 16.4661 12.5001 16.4541V20.6002C12.5002 20.8375 12.5706 21.0694 12.7024 21.2667C12.8343 21.464 13.0217 21.6178 13.241 21.7086C13.4602 21.7994 13.7014 21.8231 13.9342 21.7769C14.1669 21.7306 14.3807 21.6163 14.5485 21.4486L24.1487 11.8485C24.3736 11.6234 24.5 11.3183 24.5 11.0001C24.5 10.6819 24.3736 10.3767 24.1487 10.1516ZM14.9002 17.7033V15.2001C14.9002 14.8818 14.7737 14.5766 14.5487 14.3516C14.3236 14.1265 14.0184 14.0001 13.7001 14.0001C13.3941 14.0001 12.1449 14.0601 11.8257 14.1021C8.59152 14.4001 5.51296 15.6288 2.96243 17.6397C3.25192 14.993 4.50749 12.5461 6.48873 10.7674C8.46997 8.9888 11.0376 8.00344 13.7001 8.00002C14.0184 8.00002 14.3236 7.87359 14.5487 7.64855C14.7737 7.4235 14.9002 7.11827 14.9002 6.80001V4.29678L21.6034 11.0001L14.9002 17.7033Z" fill="#D26600"/>
</svg>
