<svg width="14" height="15" viewBox="0 0 14 15" fill="none" xmlns="http://www.w3.org/2000/svg">
<path d="M13.5112 6.15602C13.3145 5.91987 13.0683 5.72978 12.7901 5.59915C12.5119 5.46852 12.2084 5.40055 11.901 5.40002H8.70876L9.10079 4.39902C9.26386 3.96074 9.31816 3.48945 9.25905 3.02557C9.19994 2.56169 9.02917 2.11908 8.76139 1.73569C8.49362 1.3523 8.13683 1.03959 7.72163 0.824371C7.30643 0.609154 6.84522 0.497858 6.37755 0.500031C6.24289 0.500312 6.11116 0.539424 5.99817 0.612677C5.88518 0.68593 5.79571 0.790215 5.7405 0.91303L3.74533 5.40002H2.10018C1.54318 5.40002 1.00899 5.62127 0.615129 6.01509C0.221269 6.40892 0 6.94306 0 7.50002V12.4C0 12.957 0.221269 13.4911 0.615129 13.8849C1.00899 14.2788 1.54318 14.5 2.10018 14.5H11.012C11.5033 14.4998 11.979 14.3274 12.3563 14.0128C12.7336 13.6982 12.9887 13.2612 13.0771 12.778L13.9662 7.87802C14.0212 7.57518 14.0089 7.26396 13.9303 6.96639C13.8517 6.66882 13.7086 6.39217 13.5112 6.15602ZM3.5003 13.1H2.10018C1.91452 13.1 1.73645 13.0263 1.60517 12.895C1.47388 12.7637 1.40012 12.5857 1.40012 12.4V7.50002C1.40012 7.31436 1.47388 7.13632 1.60517 7.00504C1.73645 6.87377 1.91452 6.80002 2.10018 6.80002H3.5003V13.1ZM12.6011 7.62602L11.712 12.526C11.6822 12.6891 11.5955 12.8363 11.4673 12.9414C11.3391 13.0465 11.1777 13.1027 11.012 13.1H4.90043V6.24702L6.80459 1.96303C7.0006 2.02017 7.18263 2.11731 7.3392 2.24834C7.49577 2.37936 7.62347 2.54141 7.71425 2.72427C7.80503 2.90713 7.85691 3.10682 7.86662 3.31074C7.87634 3.51465 7.84367 3.71837 7.77068 3.90902L7.39964 4.91002C7.32058 5.1216 7.29389 5.34916 7.32185 5.57329C7.34981 5.79742 7.43158 6.01146 7.56019 6.19714C7.6888 6.38282 7.86043 6.53462 8.06044 6.6396C8.26044 6.74459 8.48287 6.79962 8.70876 6.80002H11.901C12.0039 6.79985 12.1055 6.82234 12.1987 6.8659C12.2918 6.90945 12.3743 6.973 12.4401 7.05202C12.5075 7.12994 12.5569 7.2218 12.5848 7.32102C12.6126 7.42024 12.6182 7.52439 12.6011 7.62602Z" fill="#D26600"/>
</svg>
