<svg width="31" height="30" viewBox="0 0 31 30" fill="none" xmlns="http://www.w3.org/2000/svg">
<path d="M29.4525 12.12C29.031 11.614 28.5035 11.2067 27.9074 10.9267C27.3112 10.6468 26.6608 10.5012 26.0022 10.5H19.1616L20.0017 8.35505C20.3511 7.41587 20.4675 6.40596 20.3408 5.41194C20.2141 4.41791 19.8482 3.46945 19.2744 2.6479C18.7006 1.82636 17.9361 1.15626 17.0463 0.69508C16.1566 0.233901 15.1683 -0.00458913 14.1662 6.68867e-05C13.8776 0.000668928 13.5954 0.0844796 13.3532 0.24145C13.1111 0.398421 12.9194 0.62189 12.8011 0.885065L8.5257 10.5H5.00039C3.80681 10.5 2.66212 10.9741 1.81813 11.8181C0.974147 12.662 0.5 13.8066 0.5 15V25.5C0.5 26.6935 0.974147 27.8381 1.81813 28.682C2.66212 29.5259 3.80681 30 5.00039 30H24.0971C25.1499 29.9996 26.1692 29.6302 26.9778 28.956C27.7863 28.2818 28.3329 27.3455 28.5224 26.31L30.4276 15.81C30.5454 15.1611 30.5192 14.4942 30.3507 13.8566C30.1822 13.2189 29.8756 12.6261 29.4525 12.12ZM8.00065 27H5.00039C4.60253 27 4.22097 26.842 3.93964 26.5607C3.65831 26.2794 3.50026 25.8978 3.50026 25.5V15C3.50026 14.6022 3.65831 14.2207 3.93964 13.9394C4.22097 13.6581 4.60253 13.5 5.00039 13.5H8.00065V27ZM27.5023 15.27L25.5972 25.77C25.5333 26.1194 25.3474 26.4349 25.0727 26.6601C24.798 26.8854 24.4523 27.0058 24.0971 27H11.0009V12.315L15.0813 3.13506C15.5013 3.2575 15.8913 3.46567 16.2269 3.74643C16.5624 4.0272 16.836 4.37446 17.0305 4.7663C17.2251 5.15813 17.3362 5.58604 17.357 6.023C17.3779 6.45997 17.3079 6.8965 17.1514 7.30505L16.3564 9.45005C16.187 9.90343 16.1298 10.3911 16.1897 10.8713C16.2496 11.3516 16.4248 11.8103 16.7004 12.2081C16.976 12.606 17.3438 12.9313 17.7724 13.1563C18.2009 13.3813 18.6776 13.4992 19.1616 13.5H26.0022C26.2226 13.4997 26.4404 13.5479 26.64 13.6412C26.8396 13.7345 27.0163 13.8707 27.1573 14.04C27.3018 14.207 27.4077 14.4039 27.4673 14.6165C27.527 14.8291 27.5389 15.0523 27.5023 15.27Z" fill="#D26600"/>
</svg>
